<svg width="48" height="177" viewBox="0 0 48 177" xmlns="http://www.w3.org/2000/svg"><title>slide-1</title><g fill="none" fill-rule="evenodd"><path d="M1.646 163.354c-.188.33-1.176 3.4-1.317 4.629-.141 1.228.33 3.968.33 3.968s.799 1.18 3.292.661c2.492-.52 5.926-1.984 5.926-1.984s7.619-4.11 4.938-4.629c-2.68-.52-7.29-2.362-8.23-2.976-.941-.614-4.75 0-4.939.33z" stroke="#C0CED5" stroke-width="2" fill="#FFF"/><path d="M.658 170.959s.659.62 2.634.33c1.976-.289 3.293-.66 3.293-.66M6.42 164.346c.818 0 1.481.814 1.481 1.819 0 1.004-.663 1.818-1.481 1.818-.818 0-1.482-.814-1.482-1.818 0-1.005.664-1.819 1.482-1.819z" stroke="#C0CED5" stroke-width="2"/><path d="M17.449 165.007s2.704 1.22 5.268.992c1.773-.158 3.715 1.653 3.292 2.976-.424 1.323-2.822 3.448-4.939 3.637-2.116.189-5.126.378-6.255 1.323-1.129.945-5.032 1.937-6.584 1.323-1.553-.615-1.694-2.646-1.647-4.3.048-1.652.377-3.873.988-4.628.612-.756 3.575-3.401 4.28-3.638.706-.236 5.597 2.315 5.597 2.315z" stroke="#C0CED5" stroke-width="2" fill="#FFF" stroke-linejoin="round"/><path d="M19.754 165.668s1.728.455 2.963 1.984c1.234 1.53.658 2.646.658 2.646" stroke="#C0CED5" stroke-width="2"/><path d="M25.92 167.82c-.276.481-1.215 1.894-3.203 2.808-2.428 1.116-5.021.744-6.914 1.323-1.893.579-3.214 2.828-6.914 1.984-2.249-.514-2.304-.992-2.304-.992M19.754 165.668s1.358.992 1.646 1.984M17.778 165.007s1.235.95 1.646 1.984c.412 1.033 0 .661 0 .661M16.79 164.676s.659 1.199.659 1.984v1.323" stroke="#C0CED5" stroke-width="2"/><path d="M.988 165.338s-.283-2.032 0-2.646c.282-.614.705-.378.658-1.322-.047-.945-.282-.85-.33-1.654-.046-.802-.47.095-.658-1.653-.188-1.748-.094-10.203 0-12.565s.47-8.03.33-9.589c-.142-1.559 2.54-8.786 2.963-10.581.423-1.795 1.787-6 1.646-7.605-.141-1.606-.518-12.093-.659-13.888-.14-1.795-.376-1.606-.658-3.968-.282-2.362-.706-2.41-.988-3.637-.282-1.228-.752-1.795-.987-3.307-.236-1.511 2.54-7.18 6.584-7.605 4.045-.425 12.322-2.74 14.486 4.63 2.163 7.368 1.41 13.32-.33 16.202-1.74 2.88-9.688 27.208-9.547 30.42.141 3.213-.987 10.25-.987 10.912 0 .661-3.01 19.792-3.622 19.178-.612-.614-2.164-.803-4.28-.992-2.116-.189-3.621-.33-3.621-.33z" stroke="#C0CED5" stroke-width="2" fill="#FFF"/><path d="M6.914 166.991s1.034-.52.658-1.323c-.376-.803-.705-2.503-.658-2.976.047-.472.611-2.787.658-3.637.047-.85.094-2.787.33-3.637.234-.85.282-2.787.329-3.637.046-.85-.095-7.322.658-11.904.752-4.582 2.023-7.416 2.305-9.92.282-2.503.282-6.471.987-9.59.706-3.117 1.364-4.392 1.317-6.943-.047-2.55.517-9.07.659-11.242.14-2.173-1.176-3.732-1.317-4.299-.141-.567-1.835-.897-2.305-2.645-.47-1.748-1.787-4.818-1.646-6.283.141-1.464 14.392-3.873 16.132-3.637 1.74.236 4.468 1.7 4.939 2.315.47.614 3.198 1.322 2.963 1.984-.236.66-1.317 6.235-1.647 7.274-.329 1.04-1.787 7.605-1.975 8.267-.188.66-2.587 9.305-4.28 14.218s-2.728 6.282-2.963 7.605c-.235 1.323-.423 4.677-.658 6.613-.236 1.937-1.929 12.99-2.305 14.55-.376 1.558-1.458 3.023-1.317 4.629.141 1.606-.658 3.826-.988 4.96-.329 1.133-.047 1.653 0 2.314.048.661-.8 2.457-.658 2.976.141.52.658 1.275.658 1.653 0 .378-.282 3.638-4.609 3.638s-5.267-1.323-5.267-1.323zM29.96 46.63s2.359-4.408 3.292-5.29c.932-.882 2.634-4.133 4.28-5.621 1.646-1.488 2.03-2.15 2.304-1.984.275.165.549 1.598-.329 1.984-.878.386-1.756 1.874-.988 1.653.768-.22 3.402-.55 4.28-.992.878-.44 3.238-1.874 2.963-.992-.274.882-1.317 2.646-1.317 2.646s-.055 1.212-.33 1.322c-.273.11-.273.937-.657 1.323-.384.386-.659.992-.659.992s.275.496-.987 1.322c-1.263.827-2.14 1.433-3.293 1.654-1.152.22-1.7.33-2.963 1.984-1.262 1.653-2.963 4.96-2.963 4.96l-2.633-4.96z" stroke="#C0CED5" stroke-width="2" fill="#FFF"/><path d="M27.984 47.953l2.305-2.314s2.194.606 3.621 2.645c1.427 2.04 1.646 3.637 1.646 3.637s-3.237 4.52-6.584 6.614c-3.347 2.094-2.634-6.283-2.634-6.283l1.646-4.299z" stroke="#C0CED5" stroke-width="2" fill="#FFF"/><path d="M42.14 29.436s-.375.118-.46.33l-4.324 10.858c-.099.247.176.386.176.386h4.28s.391-.157.502-.435L46.6 29.813c.096-.241-.18-.377-.18-.377h-4.28z" stroke="#C0CED5" stroke-width="2" fill="#FFF" stroke-linecap="round" stroke-linejoin="round"/><path d="M18.766 30.428l.658-2.314s2.387 1.116 3.293.33c.905-.785.164-.909.658-1.322.494-.414.617-.372.988-.662.37-.289.329-.991.329-.991s.37.289.658-.662c.288-.95.33-.992.33-.992s1.11.207.987-.992c-.123-1.198-.164-1.612-.329-2.314-.165-.703 0-1.654 0-1.654s.576-.578.658-1.322c.083-.744-.411-1.488-.329-2.315.083-.827-6.132-14.425-14.486-5.952-8.354 8.473-1.522 14.921-1.646 15.541-.123.62-.658 4.299-.658 4.299l8.889 1.322z" stroke="#C0CED5" stroke-width="2" fill="#FFF"/><path d="M22.387 17.202s.535-2.728-1.317-2.315c-1.851.414-1.934 1.902-1.975 2.315-.041.413 0 2.645 0 2.645s-2.387.496-2.305 1.323c.083.827.453 1.199 0 1.323-.452.124-2.304-.331-2.304-.331s-1.81.041-2.305.661c-.493.62-2.304.992-2.304.992s-5.268-.454-3.622-5.952c1.646-5.497 1.153-5.414 1.317-6.613.165-1.199-.7-2.893 1.646-4.63 2.346-1.735 7.161-4.298 12.84-1.983 5.68 2.315 4.938 8.266 4.938 8.597 0 .33-1.646 1.281-2.304 1.984-.659.703-1.646 2.315-1.646 2.315l-.659-.331z" stroke="#C0CED5" stroke-width="2" fill="#FFF"/><path d="M9.548 10.92c.164-.083 3.374-1.2 3.95-2.315.576-1.116.782-4.299.659-4.63-.124-.33-2.14-3.72-4.28-2.314-2.14 1.405-1.235 2.48-1.976 2.645-.74.166-1.919.935-1.975 3.968-.041 2.232 1.152 2.893 1.975 2.976.823.083 1.482-.248 1.647-.33zM23.046 35.058s-1.92-4.795-5.268-6.283c-3.347-1.488-7.517-1.708-8.56-1.653-1.042.055-1.317.661-1.317.661l-.329 3.968 15.474 3.307z" stroke="#C0CED5" stroke-width="2" fill="#FFF"/><path d="M7.243 31.42s-4.06 4.244-4.61 6.614c-.548 2.37-1.59 9.258-1.645 10.58-.055 1.323 1.371 10.03 1.646 12.235.274 2.205.22 12.124 0 16.533-.22 4.409-.384 10.691-.33 11.904.055 1.212.33 4.96.33 4.96s.548 2.37 5.926 1.653c5.377-.716 8.45-2.7 10.535-4.298 2.085-1.599 3.292-3.913 5.597-3.968 2.304-.056 6.584 0 6.584 0s-.22-12.455-.987-15.21c-.769-2.756-1.976-19.344-2.963-21.494-.988-2.149-1.153-9.81-1.646-11.573-.494-1.763-1.647-4.629-3.293-5.621-1.646-.992-11.358-3.692-12.84-3.637-1.481.055-2.304 1.322-2.304 1.322z" stroke="#C0CED5" stroke-width="2" fill="#FFF"/><path d="M30.947 86.971S23.265 83.17 21.4 81.02c-1.866-2.149-9.329-4.629-11.523-6.282-2.195-1.653-4.28-2.315-4.28-2.315l-.988-3.637-.658 3.307H1.317s.549-8.157.658-9.259c.11-1.102.768-6.338-.329-9.92-1.098-3.582-2.25-12.84 0-15.871 2.25-3.032 6.09-5.842 6.585-5.952.493-.11 7.736-.551 8.56 0 .823.55 2.304 1.984 2.304 1.984s-5.487-1.488-7.572 4.96c-2.085 6.447-.44 13.116.33 13.887.767.772 2.304 2.866 3.95 2.315 1.646-.551 6.036-2.315 7.572-6.613 1.536-4.299.33-8.597.33-8.597s5.321 6.282 5.925 11.903c.604 5.622-.22 8.708 0 10.581.22 1.874 1.646 6.008 1.646 10.582 0 4.574.11 11.903.33 12.895.219.992-.659 1.984-.659 1.984z" stroke="#C0CED5" stroke-width="2" fill="#FFF"/><path d="M30.289 84.987l.329 6.283 1.317.661s.22.772.988-.992c.768-1.763.164-1.763.987-2.645.823-.882 1.976-4.74.988-5.952-.988-1.212-2.963-3.307-2.963-3.307l-1.975 3.638.329 2.314z" stroke="#C0CED5" stroke-width="2" fill="#FFF"/><path d="M30.289 84.987s1.372 1.93 3.621-.661c2.25-2.59 2.36-3.417 1.646-4.63-.713-1.212-1.756-2.534-2.304-3.306-.55-.771-2.03-2.039-2.963-2.976-.933-.937-1.043-2.48-1.646-3.306-.604-.827-1.427-2.59-2.305-2.976-.878-.386-1.866-1.158-1.646-3.638.22-2.48 1.207-9.92.988-14.218-.22-4.299.658-9.754.329-11.242-.33-1.488-1.427-3.086-2.634-2.976-1.207.11-5.597 3.416-7.243 5.29s-3.292 7.991-2.963 9.59c.33 1.597 1.372 4.96 1.646 6.282.274 1.323.384 5.566.33 7.936-.056 2.37-1.263 4.519.329 6.282 1.59 1.764 4.554 4.299 5.267 5.29.713.993.713 3.638 3.292 4.63 2.58.992 6.256 4.63 6.256 4.63z" stroke="#C0CED5" stroke-width="2" fill="#FFF" stroke-linejoin="round"/><path d="M15.474 34.066s2.54-1.374 4.28-.661c1.74.713 3.728 1.397 4.28 2.314.55.918-7.244 7.605-7.244 7.605l-3.95-1.653 2.634-7.605z" fill="#FFF"/></g></svg>
