<svg width="207" height="183" viewBox="0 0 207 183" xmlns="http://www.w3.org/2000/svg"><title>slide-2</title><g fill="none" fill-rule="evenodd"><path d="M199.634 128.536s-3.318 6.435-4.573 5.916c-1.255-.518-4.224-2.188-7.187-3.286-2.963-1.099-3.737.214-11.106-4.601-7.37-4.815-14.53-7.973-21.56-9.86-7.03-1.886-15.027-10.516-15.027-10.516l-8.493 1.315h-6.533l-16.987 5.258 20.253 21.033 18.294 6.572s13.932 2.04 18.946 5.916c2.908 3.555 3.92 3.287 3.92 3.287s-1.762 6.743 3.266 9.859c5.028 3.115 9.147 6.573 9.147 6.573s-5.593-7.714-.653-7.888c4.94-.174 9.146 2.63 9.146 2.63s8.215-.982 8.494-7.23c.278-6.25-2.614-7.23-2.614-7.23s-2.903 2.026-3.92 2.628c-1.016.603-3.266-.657-3.266-.657s2.01-3.685 7.186-3.286c5.176.398 8.955 2.274 8.494-6.573.726-10.052-5.227-9.86-5.227-9.86z" fill="#FFF"/><path d="M137.302 139.564c8.738 1.226 16.038 2.118 20.683 4.235 4.646 2.12 6.857 3.457 7.632 3.457.774 0 1.858 1.747 3.429 2.787 5.768 3.821 8.771 2.004 15.96 4.792 7.19 2.786 9.581-.869 9.581-3.21s-3.2-.69-6.518-4.704c-3.318-4.013-8.627-4.905-9.511-5.685-.886-.78-3.65-3.176-3.65-3.176s-9.331.752-13.852-1.3c-4.916-2.229-8.988-4.842-12.859-7.072-3.871-2.23-1.162-.939-6.47-1.942-5.31-1.003-17.919-4.348-23.45-2.34-5.53 2.006-4.091 11.37-.22 12.708 3.871 1.338 10.507.223 19.245 1.45z" stroke="#C0CED5" stroke-width="2"/><path d="M110.314 109.463c8.185-1.56 8.96-1.56 19.024-2.118 10.065-.558 9.291-2.564 11.504-1.115 2.211 1.45 6.967 6.578 13.825 8.919 6.857 2.34 19.356 8.695 23.227 11.482 3.871 2.787 11.613 4.325 13.383 5.328 1.77 1.004 3.259 2.723 5.865 1.695 5.941-2.344 7.825 2.516 6.387 6.418-1.438 3.903-13.977 3.628-15.968 3.851-1.99.223-5.022-1.349-8.34-3.579-3.318-2.23-8.295.258-16.923-2.306-8.627-2.565-15.373-8.596-17.143-9.6-1.77-1.003-9.07-1.583-13.936-3.701-4.867-2.12-36.721-1.339-34.73-7.136 1.991-5.797 5.64-6.577 13.825-8.138z" stroke="#C0CED5" stroke-width="2" fill="#FFF"/><path d="M194.816 134.213c.443-.67 3.54-8.028 7.3-5.575 3.76 2.453 4.203 7.135 3.429 11.483-.775 4.348-1.94 6.272-6.806 6.049-4.866-.223-3.574-1.45-4.79 0-1.217 1.449-2.317 2.888-3.194 2.888-.877 0-3.02-2.736-4.79-3.851-1.77-1.114-3.93-2.294-5.749-3.21l.443-1.319s3.982.78 8.737 1.004c4.756.223 14.158-1.561 11.725-4.683-2.434-3.121-6.747-2.117-6.305-2.786z" stroke="#C0CED5" stroke-width="2" fill="#FFF"/><path d="M108.042 103.487s-8.694-5.35-9.674-13.073c-.98-7.723-.98-33.686-4.573-36.808-3.593-3.122-12.413-5.915-12.413-5.915l-12.413-1.972-25.48 11.83-5.227 1.973s-2.777 3.78-4.573 11.831c-1.797 8.051-4.737 14.296-5.227 17.746-.49 3.451-.653 8.545-.653 8.545l56.186 12.489 25.48-1.972c.247-.992.515-1.694.802-2.107.288-.412 1.033-.947 2.236-1.604-.428-.995-.854-1.53-1.278-1.605-.783-.139-1.847.075-3.193.642z" fill="#FFF"/><path d="M191.166 149.485c0 .428 1.77-3.01 2.876-3.344 1.106-.335 3.65-1.226 4.203.558.553 1.783.995 1.672 1.327 2.564.332.891 1.217 7.134-2.323 9.364-3.539 2.23-7.078 3.01-7.078 3.01s-.775-1.003-1.88-1.003c-1.106 0-6.526-3.233-8.296-1.784-1.77 1.45 5.65 8.821 5.65 8.821l-1.916 1.926s-4.508-5.284-6.83-7.068c-2.324-1.784-6.748-2.118-7.743-7.358-.995-5.24.11-5.351.11-5.351s8.406-2.007 12.5-.223c4.091 1.784 10.507 4.014 10.617 1.672.11-2.341-1.217-2.211-1.217-1.784z" stroke="#C0CED5" stroke-width="2" fill="#FFF"/><path d="M104.895 108.46c1.106.669 3.318.669 3.318.669s1.88-1.338 1.88-2.23c0-.891.443-2.006 1.77-2.006s1.548-.224.664-1.227c-.885-1.004-.996-.78-1.88-1.004-.886-.222-1.967.504-1.967.504s-.578.835-.799.388c-.221-.446-2.323-2.34-2.654-2.786-.332-.446-3.43-3.01-4.093-3.791-.663-.78-1.106-4.57-1.99-7.358-.885-2.786-1.438-14.939-1.438-18.394 0-3.457-.664-9.476-1.991-14.382-1.328-4.905-3.54-4.57-6.194-6.243-2.654-1.672-4.867-1.003-10.397-4.682-5.53-3.679-24.222 2.564-29.53 5.24-5.31 2.675-9.955 5.351-11.172 7.023-1.217 1.673-3.319 5.463-4.535 9.253-1.216 3.79-2.986 12.486-3.87 14.047-.886 1.56-2.767 9.253-2.767 12.932 0 3.679 76.54 13.378 77.645 14.047zM42.835 93.042s-1.297-6.337-1.307-9.859" stroke="#C0CED5" stroke-width="2"/><path d="M83.342 66.094s-1.174 7.632 0 17.746c1.173 10.115 3.267 17.09 3.267 17.09" stroke="#C0CED5" stroke-width="2"/><path d="M43.851 45.08c2.544-5.13 3.42-8.304 3.42-10.422 0-2.118-1.66-6.02-.333-9.253 1.328-3.233 1.88-8.584 4.424-12.598 2.544-4.013 6.195-10.479 10.065-11.259C65.3.767 70.497.544 73.484 2.44c2.986 1.895 9.622 6.689 10.839 10.367 1.216 3.68-.333 11.818-.554 15.608-.22 3.79 1.107 9.699-.774 12.375-1.88 2.675-1.769 6.02-.442 7.023 1.327 1.004-2.655-.335-3.318-.668-.664-.335-1.106 2.563-.553 3.121.553.557.995 1.003 1.327 2.564.332 1.56 1.217 3.233 1.217 4.125 0 .891-1.88-2.787-3.319-4.46a17.458 17.458 0 0 0-3.096-2.787s-1.66.558-.885 2.453c.774 1.895 2.765 5.685 2.765 5.685l.11 4.348s-1.659-3.902-1.77-4.57c-.11-.67-1.99-2.788-1.99-2.788s-.222 4.683-.331 5.575c-.112.892-2.987 3.902-2.987 3.902s3.096-3.122 1.88-7.135c-1.216-4.014-1.548-3.567-1.548-3.567l-1.106 5.796s-.774 4.014-.774 6.243c0 2.23-.443 5.798-.443 5.798s-1.66-3.456-1.327-5.575c.331-2.118-1.66-1.784-.995 2.007.663 3.79.22 4.014.774 7.581.552 3.567-2.323 6.466-2.323 6.466s1.217-3.233.11-4.57c-1.106-1.338-1.99-.112-2.433 1.337-.442 1.45-1.548 4.46-1.991 3.01-.442-1.45-1.438-3.79-1.438-3.79s-.774.111-.774 1.45c0 1.336-1.88-.336-1.88-.336s-.442 1.004-.664 1.672c-.22.67-2.322-1.226-2.322-1.226s.11 2.898-.774.892c-.885-2.006-.775-2.675-1.107-4.125-.332-1.45-.884-2.899-.884-2.899s-.553 2.565-.664 3.345c-.11.781-4.314-1.672-4.314-1.672s-.884-.223-1.106 1.895c-.221 2.118-1.438 2.342-1.99.669-.553-1.672-1.77-4.57-1.77-4.57s-.996-4.014-.664-5.91c.332-1.895-.442-5.908-.442-7.357 0-1.45-1.438-3.122.11-5.017 1.549-1.895 2.261-3.77 3.071-5.153.919-1.57-.628.635 1.916-4.493zM98.148 89.173l2.323-15.496s-.553-1.337 3.65-1.337c4.202 0 36.167-.112 36.167-.112s1.66-.892 1.217 4.348c-.442 5.24-6.083 29.654-6.083 29.654l-15.421 3.867-7.253 1.819-6.304-2.787s2.433.446 2.875-1.115c.442-1.561.774-2.044 1.77-2.601.995-.558 1.438-1.19 1.438-1.19l-1.439-1.226-1.13-.152-.958.321c-.32-.169-.896.338-1.597 0-.701-.337-6.047-3.736-6.49-5.408-.442-1.673-2.765-8.585-2.765-8.585z" stroke="#C0CED5" stroke-width="2" fill="#FFF"/><path d="M10.218 172.478C4.024 162.11-2.834 142.49 5.462 119.746c8.295-22.742 21.125-28.985 33.955-27.536 12.83 1.45 12.388 2.676 15.485 4.571 3.097 1.896 5.088 1.672 7.521 2.564 2.434.892 20.24-.892 23.448.335 3.207 1.226 6.858.892 12.83 3.79 5.973 2.898 17.033 8.696 19.909 9.81 2.875 1.115 5.309 1.785 6.083 2.9.774 1.114 9.954-1.896 16.702 8.918 6.746 10.814 9.4 31.438 3.317 40.803-6.083 9.364-19.466 11.928-26.102 12.04-6.636.111-63.266 6.986-80.815 2.08-17.55-4.905-21.383 2.825-27.577-7.543zM137.634 75.87l-4.572 25.417-30.231-2.23s-1.328-.593-2.065-3.12c-.738-2.528-.738-4.757-.738-4.757l3.098-16.053 34.508.743z" stroke="#C0CED5" stroke-width="2" fill="#FFF"/><path d="M105.806 102.203c1.278 1.07 1.49 2.675.639 4.814" stroke="#C0CED5" stroke-width="2"/></g></svg>
