<svg width="28" height="57" viewBox="0 0 28 57" xmlns="http://www.w3.org/2000/svg"><title>slide-3</title><g fill="none" fill-rule="evenodd"><path d="M10.856 51.273s-2.409-.689-2.54-1.53c-.13-.842-.373-1.139-.422-2.227-.05-1.089-.343-5.61.564-7.516.907-1.906 1.733-1.044 1.834-3.758.1-2.714-.512-6.028-.846-7.794-.335-1.766-.224-3.618-1.27-5.289-1.046-1.67-3.106-3.83-3.526-6.68-.42-2.85.066-6.755-.141-8.073-.207-1.318-2.419-6.434-.846-6.82 1.572-.385 2.244.14 2.538 1.531.295 1.391.283.835.283.835s.394.2.423.696c.028.497.437 5.517.987 7.377.55 1.86.697 2.511 1.27 2.366.855-.51 2.392.15 2.82-.418.429-.568.705-2.598.847-2.922.141-.325.15-1.326.846-1.949.696-.622 2.593-2.09 4.936-1.252 2.343.836 2.41 1.219 3.244.556.834-.662 2.053-2.216 2.68-1.391.627.824.376 1.792 0 2.644-.375.852-.763 1.989-.705 2.644.059.656-.25 1.827-.564 2.227-.315.4-.329 1.39-.282 1.81.047.42-.574 1.07-.423 1.67.15.599.642 2.43.14 3.34-.5.91-.738 4.646-.563 5.01.174.365.739 3.748.705 5.15-.034 1.402-.875 4.28-.141 5.289.734 1.01 2.132 1.616 2.115 5.706-.016 4.09-.198 5.137.283 5.428.48.292 1.543 1.337.987 1.949-.575.283-1.03-.029-1.693.556-.663.585-2.56.719-3.244.835-.683.117-1.773.066-2.68.279-.906.213-4.738.246-5.641.139-.905-.107-1.975-.418-1.975-.418z" stroke="#C0CED5" stroke-width="2" fill="#FFF" stroke-linecap="round" stroke-linejoin="round"/><path d="M14.946 12.72s-.371-.666-.141-1.112c.23-.447-.182-3.798.564-3.758.746.039 1.766 2.408 2.68 2.783" stroke="#C0CED5" stroke-width="2" stroke-linecap="round" stroke-linejoin="round"/><path d="M12.548 48.49s-.24 1.06-.423 1.67c-.183.61-.99.748-1.956 1.723-2.38 2.403-9.853.154-9.01 2.378.201.533.578 1.507 3.812 1.699 5.209.31 7.57-1.402 8.283-2.042.713-.64 2.013-.854 3.244-1.67 1.23-.817 2.078-1.369 2.257-2.088.178-.719-1.207-4.954-2.54-4.871-1.331.083-3.667 3.2-3.667 3.2z" stroke="#C0CED5" stroke-width="2" fill="#FFF" stroke-linecap="round" stroke-linejoin="round"/><path d="M3.286 2.192l.612.737M4.086 1.587L4.79 2.7" stroke="#C0CED5" stroke-width="2" stroke-linecap="round" stroke-linejoin="round"/><path d="M19.46 49.743s-5.882 1.694-7.899-1.531c-2.017-3.226 6.206-5.707 6.206-5.707s2.76 3.37 2.398 5.01c-.361 1.641-.705 2.228-.705 2.228z" fill="#FFF"/></g></svg>
