<svg xmlns="http://www.w3.org/2000/svg" width="1255" height="602" viewBox="0 0 1255 602"><style>@media (max-width:719px){#svg-girl-nb{display:none}}*{stroke-width:2}@media (max-width:800px){*{stroke-width:3!important}}@media (max-width:600px){*{stroke-width:4!important}}</style><g fill="none" fill-rule="evenodd"><path fill="#FFF" stroke="#C0CED5" stroke-width="2" d="M5.52 559.56c-.632 1.108-3.944 11.403-4.416 15.521-.474 4.118 1.104 13.304 1.104 13.304s2.68 3.96 11.038 2.218c8.358-1.743 19.87-6.652 19.87-6.652s25.547-13.78 16.558-15.522c-8.989-1.743-24.443-7.92-27.598-9.978-3.152-2.059-15.926 0-16.557 1.109z"/><path stroke="#C0CED5" stroke-width="2" d="M2.208 585.06s2.207 2.078 8.83 1.108c6.624-.97 11.04-2.216 11.04-2.216m-.552-21.065c2.743 0 4.967 2.73 4.967 6.097 0 3.369-2.224 6.098-4.967 6.098-2.744 0-4.968-2.73-4.968-6.098s2.224-6.097 4.968-6.097z"/><path fill="#FFF" stroke="#C0CED5" stroke-linejoin="round" stroke-width="2" d="M58.505 565.103s9.067 4.091 17.662 3.326c5.946-.53 12.457 5.543 11.039 9.978-1.42 4.435-9.462 11.562-16.558 12.196-7.097.633-17.19 1.267-20.974 4.434-3.785 3.168-16.874 6.494-22.077 4.435-5.205-2.059-5.677-8.87-5.52-14.413.158-5.543 1.262-12.988 3.312-15.521 2.05-2.535 11.985-11.404 14.35-12.196 2.366-.791 18.766 7.761 18.766 7.761z"/><path stroke="#C0CED5" stroke-width="2" d="M66.232 567.32s5.796 1.525 9.935 6.652c4.14 5.128 2.208 8.871 2.208 8.871"/><path stroke="#C0CED5" stroke-width="2" d="M86.907 574.535c-.923 1.614-4.073 6.351-10.74 9.416-8.14 3.741-16.834 2.494-23.181 4.434-6.347 1.94-10.776 9.484-23.181 6.652-7.541-1.721-7.728-3.325-7.728-3.325m44.155-24.392s4.554 3.326 5.52 6.652m-12.143-8.869s4.14 3.187 5.52 6.652c1.38 3.465 0 2.217 0 2.217m-8.831-9.978s2.207 4.02 2.207 6.652v4.435"/><path fill="#FFF" stroke="#C0CED5" stroke-width="2" d="M3.312 566.212s-.948-6.811 0-8.87c.946-2.059 2.364-1.267 2.207-4.435-.157-3.167-.946-2.85-1.104-5.543-.157-2.692-1.577.316-2.207-5.543-.632-5.86-.316-34.211 0-42.13.314-7.92 1.576-26.926 1.104-32.152-.474-5.227 8.515-29.46 9.934-35.478 1.419-6.018 5.993-20.115 5.52-25.5-.474-5.385-1.735-40.547-2.208-46.564-.473-6.018-1.262-5.385-2.208-13.305-.946-7.919-2.365-8.078-3.311-12.195-.947-4.118-2.524-6.02-3.312-11.087-.79-5.068 8.515-24.074 22.078-25.5 13.56-1.426 41.315-9.186 48.57 15.522 7.254 24.708 4.73 44.664-1.104 54.325-5.835 9.661-32.486 91.228-32.012 102 .472 10.77-3.312 34.368-3.312 36.586 0 2.217-10.093 66.362-12.142 64.303-2.051-2.058-7.255-2.693-14.35-3.326-7.098-.634-12.143-1.108-12.143-1.108z"/><path fill="#FFF" stroke="#C0CED5" stroke-width="2" d="M23.181 571.755s3.47-1.743 2.208-4.435c-1.262-2.693-2.366-8.394-2.208-9.978.158-1.584 2.05-9.345 2.208-12.195.158-2.852.315-9.345 1.104-12.196.788-2.851.946-9.345 1.104-12.195.157-2.852-.316-24.55 2.208-39.913 2.522-15.363 6.78-24.867 7.727-33.26.946-8.394.946-21.699 3.311-32.152 2.365-10.454 4.573-14.73 4.416-23.283-.158-8.552 1.734-30.41 2.208-37.695.472-7.286-3.943-12.513-4.416-14.413-.474-1.9-6.15-3.009-7.727-8.87-1.577-5.86-5.993-16.154-5.52-21.064.473-4.91 48.255-12.987 54.09-12.196 5.835.792 14.981 5.702 16.558 7.761s10.723 4.435 9.935 6.652c-.789 2.217-4.415 20.907-5.519 24.391-1.104 3.485-5.993 25.5-6.624 27.717-.63 2.218-8.672 31.202-14.35 47.674-5.677 16.471-9.146 21.065-9.934 25.5-.79 4.434-1.42 15.68-2.208 22.173-.79 6.494-6.467 43.555-7.727 48.782-1.262 5.226-4.89 10.137-4.416 15.522.473 5.385-2.208 12.83-3.311 16.63-1.104 3.8-.158 5.543 0 7.76.157 2.218-2.682 8.237-2.208 9.979.472 1.742 2.208 4.276 2.208 5.543 0 1.268-.948 12.196-15.455 12.196-14.508 0-17.662-4.435-17.662-4.435zm77.271-403.56s7.91-14.783 11.04-17.74c3.126-2.957 8.83-13.858 14.35-18.847 5.519-4.99 6.806-7.207 7.727-6.652.92.554 1.839 5.358-1.104 6.652-2.944 1.294-5.888 6.283-3.312 5.543 2.576-.74 11.406-1.848 14.35-3.326 2.943-1.478 10.855-6.283 9.935-3.326-.92 2.957-4.415 8.87-4.415 8.87s-.184 4.065-1.105 4.434c-.92.37-.92 3.141-2.207 4.435-1.288 1.294-2.207 3.326-2.207 3.326s.919 1.663-3.312 4.435c-4.232 2.771-7.175 4.804-11.039 5.543-3.863.74-5.704 1.109-9.935 6.652-4.232 5.544-9.935 16.63-9.935 16.63l-8.83-16.63z"/><path fill="#FFF" stroke="#C0CED5" stroke-width="2" d="M93.83 172.629l7.726-7.76s7.359 2.031 12.143 8.869c4.783 6.837 5.52 12.195 5.52 12.195s-10.856 15.153-22.078 22.174c-11.223 7.021-8.831-21.065-8.831-21.065l5.52-14.413z"/><path fill="#FFF" stroke="#C0CED5" stroke-linecap="round" stroke-linejoin="round" stroke-width="2" d="M141.296 110.543s-1.262.394-1.546 1.106c-2.214 5.56-12.12 30.431-14.498 36.405-.33.828.59 1.293.59 1.293h14.35s1.314-.526 1.683-1.456l14.372-36.087c.322-.808-.6-1.261-.6-1.261h-14.351z"/><path fill="#FFF" stroke="#C0CED5" stroke-width="2" d="M62.92 113.869l2.209-7.761s8.003 3.742 11.038 1.109c3.036-2.633.552-3.05 2.208-4.435 1.656-1.386 2.07-1.247 3.312-2.217 1.241-.97 1.103-3.327 1.103-3.327s1.242.97 2.208-2.217c.966-3.187 1.104-3.326 1.104-3.326s3.726.693 3.312-3.326c-.414-4.019-.552-5.405-1.104-7.76-.552-2.357 0-5.544 0-5.544s1.932-1.94 2.207-4.435c.277-2.494-1.38-4.989-1.103-7.76.276-2.772-20.56-48.367-48.57-19.957-28.011 28.41-5.106 50.03-5.52 52.108-.414 2.079-2.208 14.413-2.208 14.413l29.805 4.435z"/><path fill="#FFF" stroke="#C0CED5" stroke-width="2" d="M75.063 69.521s1.794-9.146-4.415-7.76c-6.21 1.385-6.485 6.375-6.623 7.76-.138 1.386 0 8.87 0 8.87s-8.003 1.663-7.727 4.435c.276 2.771 1.517 4.019 0 4.434-1.518.416-7.728-1.108-7.728-1.108s-6.07.138-7.727 2.217c-1.656 2.079-7.727 3.326-7.727 3.326S15.454 90.171 20.974 71.74c5.519-18.432 3.863-18.155 4.415-22.174.552-4.019-2.346-9.7 5.52-15.521 7.865-5.821 24.009-14.413 43.05-6.653 19.042 7.761 16.558 27.718 16.558 28.826 0 1.109-5.519 4.296-7.727 6.652-2.207 2.356-5.519 7.761-5.519 7.761l-2.208-1.109z"/><path fill="#FFF" stroke="#C0CED5" stroke-width="2" d="M32.012 48.456c.552-.277 11.315-4.019 13.247-7.76 1.932-3.742 2.622-14.413 2.208-15.522-.414-1.109-7.176-12.473-14.35-7.76-7.176 4.711-4.14 8.314-6.624 8.869-2.484.554-6.436 3.135-6.623 13.304-.138 7.484 3.863 9.7 6.623 9.978 2.76.277 4.967-.831 5.52-1.109zm45.26 80.934s-6.44-16.076-17.663-21.065c-11.223-4.989-25.206-5.728-28.7-5.543-3.497.185-4.416 2.217-4.416 2.217l-1.104 13.304 51.882 11.087z"/><path fill="#FFF" stroke="#C0CED5" stroke-width="2" d="M24.285 117.195S10.67 131.423 8.831 139.368c-1.84 7.946-5.336 31.044-5.52 35.478-.184 4.435 4.6 33.63 5.52 41.022.92 7.391.735 40.652 0 55.434-.736 14.782-1.288 35.847-1.104 39.912.183 4.066 1.104 16.63 1.104 16.63s1.839 7.947 19.87 5.544c18.03-2.402 28.332-9.055 35.324-14.413 6.99-5.36 11.038-13.119 18.765-13.304 7.727-.185 22.078 0 22.078 0s-.736-41.76-3.312-51c-2.576-9.238-6.623-64.857-9.935-72.064-3.311-7.206-3.863-32.891-5.519-38.804-1.656-5.912-5.52-15.521-11.039-18.847-5.519-3.326-38.083-12.381-43.05-12.196-4.968.184-7.728 4.435-7.728 4.435z"/><path fill="#FFF" stroke="#C0CED5" stroke-width="2" d="M103.764 303.454s-25.758-12.75-32.012-19.957c-6.256-7.206-31.277-15.521-38.636-21.065-7.36-5.543-14.35-7.76-14.35-7.76l-3.312-12.196-2.208 11.087H4.415s1.84-27.348 2.208-31.043c.368-3.696 2.576-21.25-1.104-33.26-3.68-12.011-7.542-43.055 0-53.218 7.543-10.163 20.422-19.587 22.078-19.956 1.656-.37 25.94-1.848 28.7 0 2.76 1.847 7.728 6.652 7.728 6.652s-18.399-4.989-25.39 16.63c-6.99 21.62-1.472 43.979 1.104 46.565 2.576 2.588 7.728 9.61 13.247 7.761 5.52-1.848 20.237-7.76 25.389-22.174 5.15-14.413 1.104-28.825 1.104-28.825s17.845 21.064 19.87 39.912c2.023 18.848-.737 29.195 0 35.478.736 6.283 5.519 20.141 5.519 35.478 0 15.336.368 39.912 1.104 43.239.735 3.326-2.208 6.652-2.208 6.652z"/><path fill="#FFF" stroke="#C0CED5" stroke-width="2" d="M101.556 296.802l1.104 21.065 4.416 2.217s.735 2.586 3.311-3.326c2.576-5.913.552-5.913 3.312-8.87 2.76-2.956 6.623-15.892 3.312-19.956-3.312-4.065-9.935-11.087-9.935-11.087l-6.624 12.196 1.104 7.76z"/><path fill="#FFF" stroke="#C0CED5" stroke-linejoin="round" stroke-width="2" d="M101.556 296.802s4.6 6.466 12.143-2.218c7.543-8.684 7.91-11.457 5.52-15.521-2.393-4.066-5.889-8.5-7.728-11.087-1.84-2.587-6.807-6.837-9.935-9.978-3.127-3.142-3.496-8.316-5.519-11.087-2.025-2.772-4.784-8.685-7.727-9.978-2.944-1.294-6.256-3.88-5.52-12.196.736-8.315 4.047-33.26 3.312-47.673-.736-14.413 2.208-32.706 1.104-37.696-1.104-4.989-4.783-10.347-8.831-9.978-4.048.37-18.766 11.456-24.285 17.738-5.52 6.284-11.039 26.795-9.935 32.153 1.104 5.358 4.599 16.63 5.52 21.065.919 4.435 1.286 18.663 1.103 26.608-.184 7.946-4.232 15.153 1.104 21.065 5.335 5.913 15.27 14.413 17.662 17.74 2.391 3.325 2.391 12.195 11.039 15.521 8.646 3.326 20.973 15.522 20.973 15.522z"/><path fill="#FFF" d="M51.882 126.065s8.518-4.607 14.35-2.217c5.833 2.39 12.503 4.684 14.35 7.76 1.849 3.077-24.284 25.5-24.284 25.5l-13.247-5.543 8.831-25.5z"/><g id="svg-girl-nb"><path fill="#FFF" d="M343.944 221.259s-5.748 11.145-7.922 10.246c-2.173-.898-7.315-3.79-12.447-5.692-5.133-1.903-6.474.37-19.237-7.97-12.764-8.338-25.166-13.808-37.342-17.075-12.178-3.269-26.028-18.215-26.028-18.215l-14.71 2.276h-11.316l-29.421 9.107 35.078 36.43 31.685 11.385s24.132 3.532 32.817 10.246c5.037 6.157 6.79 5.692 6.79 5.692s-3.052 11.68 5.657 17.077c8.708 5.396 15.843 11.385 15.843 11.385s-9.69-13.36-1.132-13.662c8.557-.302 15.842 4.554 15.842 4.554s14.229-1.7 14.711-12.522c.482-10.824-4.527-12.524-4.527-12.524s-5.028 3.51-6.789 4.554c-1.761 1.044-5.659-1.139-5.659-1.139s3.484-6.382 12.448-5.691c8.966.689 15.51 3.938 14.712-11.385 1.256-17.41-9.053-17.077-9.053-17.077z" transform="translate(90.166 251.015)"/><path stroke="#C0CED5" stroke-width="2" d="M326.147 491.374c15.135 2.123 27.779 3.669 35.825 7.336 8.046 3.67 11.877 5.987 13.218 5.987 1.34 0 3.219 3.026 5.94 4.827 9.99 6.619 15.192 3.471 27.644 8.3 12.452 4.827 16.594-1.505 16.594-5.559 0-4.055-5.542-1.196-11.29-8.148-5.747-6.951-14.942-8.495-16.474-9.847-1.533-1.352-6.323-5.5-6.323-5.5s-16.16 1.302-23.99-2.25c-8.515-3.863-15.568-8.39-22.273-12.252s-2.012-1.625-11.208-3.363c-9.195-1.737-31.034-7.53-40.613-4.054-9.578 3.475-7.088 19.696-.383 22.012 6.705 2.317 18.2.386 33.333 2.51z"/><path fill="#FFF" stroke="#C0CED5" stroke-width="2" d="M279.404 439.238c14.177-2.703 15.517-2.703 32.95-3.668 17.433-.966 16.092-4.441 19.924-1.931 3.831 2.51 12.069 11.392 23.947 15.447 11.877 4.054 33.524 15.061 40.23 19.888 6.705 4.827 20.114 7.49 23.18 9.228 3.065 1.74 5.643 4.716 10.158 2.935 10.29-4.058 13.553 4.36 11.063 11.117-2.49 6.76-24.209 6.284-27.657 6.67-3.448.386-8.699-2.336-14.446-6.198-5.747-3.863-14.368.446-29.31-3.996-14.943-4.441-26.629-14.888-29.694-16.626-3.066-1.738-15.708-2.743-24.138-6.412-8.429-3.67-63.602-2.317-60.154-12.358 3.45-10.041 9.77-11.392 23.947-14.096z"/><path fill="#FFF" stroke="#C0CED5" stroke-width="2" d="M425.764 482.106c.767-1.16 6.131-13.904 12.644-9.655 6.514 4.247 7.28 12.357 5.94 19.888-1.343 7.532-3.36 10.863-11.79 10.477-8.428-.386-6.189-2.51-8.296 0-2.108 2.51-4.013 5.002-5.532 5.002-1.519 0-5.231-4.738-8.297-6.67-3.064-1.93-6.804-3.973-9.956-5.559l.766-2.285s6.897 1.352 15.134 1.739c8.238.386 24.522-2.704 20.307-8.111s-11.685-3.668-10.92-4.826z"/><path fill="#FFF" d="M185.301 177.872s-15.057-9.266-16.754-22.643c-1.698-13.376-1.698-58.345-7.922-63.753-6.223-5.407-21.5-10.245-21.5-10.245l-21.5-3.416-44.133 20.492-9.052 3.416s-4.81 6.546-7.921 20.492c-3.112 13.945-8.205 24.76-9.053 30.737-.849 5.977-1.132 14.8-1.132 14.8l97.317 21.63 44.133-3.414c.428-1.718.891-2.935 1.39-3.649.498-.714 1.788-1.64 3.871-2.78-.741-1.722-1.479-2.648-2.212-2.778-1.356-.24-3.2.13-5.532 1.111z" transform="translate(90.166 251.015)"/><path fill="#FFF" stroke="#C0CED5" stroke-width="2" d="M419.443 508.559c0 .74 3.064-5.213 4.98-5.793 1.916-.58 6.323-2.124 7.28.966.958 3.089 1.724 2.896 2.3 4.44.574 1.545 2.106 12.359-4.024 16.22-6.13 3.861-12.26 5.213-12.26 5.213s-1.342-1.736-3.258-1.736c-1.915 0-11.301-5.6-14.367-3.09-3.065 2.51 9.786 15.279 9.786 15.279l-3.319 3.335s-7.808-9.153-11.831-12.242c-4.024-3.09-11.686-3.669-13.41-12.745-1.724-9.075.192-9.268.192-9.268s14.559-3.475 21.648-.386c7.087 3.09 18.199 6.951 18.39 2.896.192-4.055-2.107-3.83-2.107-3.09z"/><path stroke="#C0CED5" stroke-width="2" d="M270.017 437.5c1.916 1.16 5.747 1.16 5.747 1.16s3.257-2.319 3.257-3.863.766-3.475 3.065-3.475c2.3 0 2.682-.387 1.15-2.124-1.534-1.74-1.725-1.352-3.257-1.74-1.533-.385-3.405.873-3.405.873s-1.001 1.446-1.384.673c-.384-.773-4.024-4.054-4.598-4.827-.575-.771-5.94-5.213-7.089-6.566-1.148-1.35-1.915-7.916-3.447-12.743-1.533-4.827-2.491-25.875-2.491-31.86 0-5.987-1.15-16.414-3.449-24.91-2.299-8.496-6.13-7.917-10.727-10.813-4.598-2.897-8.43-1.738-18.008-8.11s-41.955 4.442-51.149 9.075c-9.195 4.635-17.241 9.27-19.349 12.166-2.107 2.897-5.748 9.461-7.854 16.026-2.108 6.566-5.173 21.626-6.705 24.33-1.534 2.703-4.79 16.026-4.79 22.398s132.568 23.171 134.483 24.33zm-107.49-26.703s-2.246-10.977-2.264-17.077"/><path stroke="#C0CED5" stroke-width="2" d="M232.686 364.12s-2.034 13.22 0 30.738c2.033 17.52 5.658 29.6 5.658 29.6"/><path fill="#FFF" stroke="#C0CED5" stroke-width="2" d="M164.287 327.722c4.406-8.882 5.921-14.38 5.921-18.05 0-3.669-2.874-10.427-.575-16.027 2.3-5.598 3.257-14.867 7.663-21.819 4.407-6.951 10.73-18.15 17.433-19.501 6.705-1.353 15.71-1.74 20.882 1.544 5.172 3.283 16.666 11.586 18.774 17.957 2.107 6.372-.576 20.469-.958 27.033-.383 6.566 1.916 16.8-1.341 21.434-3.257 4.634-3.064 10.427-.767 12.164 2.3 1.739-4.597-.579-5.747-1.157-1.15-.58-1.915 4.44-.957 5.406.957.965 1.724 1.737 2.298 4.441.575 2.703 2.109 5.6 2.109 7.144 0 1.544-3.257-4.827-5.749-7.723-2.49-2.897-5.363-4.828-5.363-4.828s-2.874.966-1.533 4.248c1.34 3.283 4.789 9.847 4.789 9.847l.192 7.531s-2.874-6.758-3.065-7.915c-.192-1.16-3.448-4.83-3.448-4.83s-.384 8.111-.575 9.657c-.192 1.544-5.173 6.758-5.173 6.758s5.364-5.408 3.257-12.358c-2.107-6.953-2.681-6.179-2.681-6.179l-1.916 10.04s-1.341 6.951-1.341 10.813c0 3.863-.767 10.041-.767 10.041s-2.874-5.985-2.299-9.655c.575-3.668-2.874-3.09-1.723 3.477 1.148 6.564.383 6.951 1.34 13.13.958 6.179-4.023 11.2-4.023 11.2s2.108-5.6.191-7.917c-1.916-2.317-3.448-.194-4.213 2.317-.767 2.51-2.683 7.724-3.45 5.213-.765-2.51-2.49-6.565-2.49-6.565s-1.34.193-1.34 2.511c0 2.316-3.257-.58-3.257-.58s-.766 1.737-1.15 2.896c-.383 1.16-4.023-2.124-4.023-2.124s.192 5.02-1.34 1.544c-1.533-3.475-1.342-4.633-1.916-7.143-.576-2.512-1.533-5.022-1.533-5.022s-.958 4.442-1.149 5.793c-.191 1.353-7.472-2.896-7.472-2.896s-1.532-.387-1.916 3.283c-.383 3.669-2.49 4.056-3.448 1.158-.957-2.896-3.065-7.916-3.065-7.916s-1.724-6.951-1.149-10.234c.574-3.283-.767-10.235-.767-12.745s-2.49-5.406.192-8.689c2.682-3.282 3.916-6.529 5.319-8.925 1.59-2.718-1.088 1.1 3.319-7.782zm94.044 76.373l4.024-26.84s-.958-2.316 6.321-2.316c7.28 0 62.644-.194 62.644-.194s2.873-1.545 2.108 7.53c-.767 9.077-10.537 51.364-10.537 51.364l-26.71 6.697-12.562 3.15-10.92-4.827s4.214.773 4.981-1.93c.766-2.704 1.34-3.54 3.064-4.507 1.725-.965 2.492-2.06 2.492-2.06l-2.492-2.123-1.958-.263-1.66.555c-.552-.292-1.55.585-2.765 0-1.215-.584-10.474-6.47-11.24-9.367-.766-2.897-4.79-14.869-4.79-14.869z"/><path fill="#FFF" stroke="#C0CED5" stroke-width="2" d="M106.032 548.383c-10.728-17.958-22.605-51.942-8.237-91.334 14.367-39.39 36.59-50.203 58.812-47.694 22.223 2.51 21.456 4.636 26.82 7.917 5.364 3.284 8.812 2.896 13.027 4.442 4.215 1.544 35.058-1.546 40.612.58 5.556 2.123 11.878 1.544 22.223 6.564 10.345 5.02 29.501 15.062 34.483 16.992 4.98 1.93 9.195 3.09 10.536 5.021 1.34 1.931 17.241-3.283 28.928 15.447 11.686 18.73 16.283 54.453 5.746 70.672-10.536 16.22-33.716 20.661-45.21 20.855-11.494.192-109.58 12.1-139.975 3.604-30.396-8.497-37.037 4.891-47.765-13.066zm220.69-167.33l-7.918 44.025-52.363-3.863s-2.298-1.028-3.576-5.406c-1.277-4.376-1.277-8.237-1.277-8.237l5.364-27.806 59.77 1.287z"/><path stroke="#C0CED5" stroke-width="2" d="M271.595 426.664c2.213 1.853 2.582 4.632 1.107 8.338"/></g><g><path fill="#FFF" stroke="#C0CED5" stroke-linecap="round" stroke-linejoin="round" stroke-width="2" d="M908.163 544.387s-8.075-2.31-8.512-5.132c-.437-2.822-1.254-3.818-1.419-7.466-.165-3.65-1.149-18.808 1.892-25.2 3.041-6.392 5.81-3.5 6.148-12.6.34-9.101-1.717-20.212-2.837-26.133-1.121-5.922-.75-12.132-4.257-17.734-3.507-5.6-10.415-12.845-11.823-22.399-1.408-9.555.222-22.647-.473-27.066-.695-4.42-8.109-21.573-2.837-22.866 5.271-1.293 7.525.468 8.512 5.132.988 4.664.947 2.8.947 2.8s1.322.67 1.418 2.334c.095 1.663 1.465 18.497 3.31 24.732 1.846 6.236 2.337 8.421 4.257 7.934 2.869-1.709 8.021.506 9.458-1.4 1.436-1.906 2.362-8.71 2.838-9.8.474-1.088.503-4.446 2.837-6.534 2.333-2.086 8.696-7.004 16.552-4.199 7.855 2.804 8.08 4.088 10.877 1.867 2.797-2.222 6.884-7.432 8.986-4.667 2.101 2.766 1.26 6.01 0 8.866-1.26 2.858-2.56 6.67-2.365 8.867.196 2.198-.838 6.125-1.891 7.467-1.055 1.34-1.103 4.657-.947 6.066.157 1.41-1.925 3.592-1.418 5.6.506 2.008 2.153 8.148.473 11.2-1.68 3.052-2.478 15.578-1.892 16.8.586 1.221 2.479 12.566 2.364 17.266-.113 4.7-2.933 14.348-.472 17.733 2.46 3.386 7.15 5.42 7.093 19.133-.054 13.714-.663 17.223.947 18.2 1.609.978 5.176 4.482 3.31 6.533-1.927.95-3.45-.094-5.675 1.866-2.225 1.961-8.585 2.41-10.878 2.8-2.291.392-5.945.221-8.985.935-3.04.712-15.886.825-18.916.466-3.032-.36-6.622-1.4-6.622-1.4z"/><path stroke="#C0CED5" stroke-linecap="round" stroke-linejoin="round" stroke-width="2" d="M921.878 415.123s-1.246-2.237-.473-3.733c.774-1.496-.61-12.733 1.892-12.6 2.501.132 5.92 8.076 8.986 9.333"/><path fill="#FFF" stroke="#C0CED5" stroke-linecap="round" stroke-linejoin="round" stroke-width="2" d="M913.838 535.054s-.803 3.556-1.418 5.6c-.615 2.045-3.322 2.51-6.558 5.776-7.98 8.057-33.039.516-30.214 7.975.677 1.788 1.94 5.054 12.783 5.696 17.467 1.037 25.38-4.7 27.772-6.847 2.392-2.147 6.752-2.862 10.877-5.6 4.126-2.737 6.967-4.588 7.568-7 .599-2.41-4.048-16.61-8.513-16.333-4.466.279-12.297 10.733-12.297 10.733z"/><path stroke="#C0CED5" stroke-linecap="round" stroke-linejoin="round" stroke-width="2" d="M882.782 379.821l2.053 2.472m.629-4.502l2.365 3.733m.945-3.733s1.315 2.248 1.418 4.199"/><path fill="#FFF" d="M937.011 539.255s-19.721 5.682-26.483-5.134c-6.762-10.815 20.808-19.133 20.808-19.133s9.251 11.3 8.04 16.8c-1.211 5.501-2.365 7.467-2.365 7.467z"/></g><g><path fill="#FFF" d="M1240.683 184.065c-3.1 16.657-3.915 33.36-4.44 51.023-.523 17.664 2.582 31.064 3.33 42.15.748 11.086 0 24.402 0 24.402L1234 299v6s-4.116-.14-9.963 0c-.917 6.342-4.433 9.086-5.37 9.815.25-.053.82.226 2.04 2.354 1.848 3.222 2.897 60.342 2.22 65.443-.677 5.101-.2 10.972 2.22 15.529 2.42 4.556 2.095 17.968 2.219 27.73.124 9.762 4.197 19.387 4.439 43.259.242 23.87-8.878 61.006-8.878 61.006s1.595 3.734 1.11 11.092c-.485 7.357-3.33 13.31-3.33 13.31s1.236 3.1 1.11 5.546c-.125 2.446.527 9.578-1.11 11.916-1.636 2.338-7.698.322-14.707.285-7.01-.036-7.488 1.018-8-.285 0-1.785-10.72-2.17-14.5 0-3.78 2.17-5.215 2.433-23 1.394-18.636-1.104-20.361 1.867-35.5-9.894 5.348-8.84 12.972-6.416 17-6.5 4.027-.084 5.39-.794 15.453-4.68-15.221.597-25.524-9.983-25.524-9.983s1.937-1.941 5.07-4.437c3.134-2.496 15.26-.49 19.344 0 4.084.49 6.483-3.734 9.988-4.437 3.504-.703 5.306-4.52 6.658-5.546 1.352-1.026 10.42-7.603 8.878-11.092-1.542-3.488-2.18-8.42 0-13.31 2.18-4.89 5.293-9.496 3.329-13.31-1.964-3.815.43-9.867 1.11-14.42.68-4.553-4.88-13.992-6.659-27.73-1.777-13.739-5.95-18.847-12.207-26.621-6.256-7.774-7.984-18.82-9.987-28.84-2.003-10.018-6.25-46.832-6.659-58.787-.408-11.955.086-14.866 1.11-21.075.89-5.395-1.442-9.785-2.067-10.844-.161.113-.92.147-3.482-.248-4.73-.727-7.123-18.647-6.658-33.276.465-14.628 6.156-43.364 6.156-43.364v-5.535L1127.5 220.5c3.5 0-9.526-.553-17-1.035-7.474-.481-8.5-7.965-8.5-7.965s-6.206-.481-11.131-1.923c-4.925-1.442-5.975-11.063-8.878-12.201-2.903-1.138-5.549-12.202-5.549-12.202L1033.5 150l17.5 5.5c9.55-9.452 16.882-16.452 22-21 5.117-4.549 11.283-9.549 18.5-15l61.514 46.5.986 1.427h2.343s.212-6.675 3.33-18.856c3.116-12.181 8.63-23.143 11.096-31.058 2.467-7.915 9.988-26.62 9.988-26.62l-3.33-1.11s-9.017 2.936-13.316 3.328c-4.299.391-5.549-4.437-5.549-4.437l-5.548-3.328v-2.218l-2.22-1.11-1.11-4.018c-.684-1.191-3.124 2.146-7.184 2-4.06-.146-2.803-15.728-2.803-15.728s-1.564-2.099-3.33-3.328c-1.765-1.229-2.564-4.341-3.328-6.655-.765-2.314-4.44-9.983-4.44-9.983s-7.094-6.84-7.768-12.201c-.08-7.475 15.15-16.801 18.866-21.075 3.715-4.274 9.028-6.674 15.536-8.874 6.509-2.2 15.315-.743 26.634 4.437 11.32 5.18 9.843 22.887 9.987 26.621.145 3.734 7.769 15.529 7.769 15.529L1200 50.5l6.5 8h6l1.55 5.772 3.328 1.109s1.652 5.532 2.22 11.092c25.63 16.805 31.255 41.583 33.292 56.569 2.036 14.986-9.107 34.366-12.207 51.023z"/><path stroke="#C0CED5" stroke-width="2" d="M1180.394 535.878l-3.75 3.745s-3.748 5.994-6.56 7.492c-2.812 1.498-3 3.559-5.624 4.683-2.625 1.124-12.934 3.746-15.934 4.682-2.999.937-12.559-.561-16.87.937-4.312 1.499-6.561 5.62-6.561 5.62s6.748 7.866 21.557 9.365c14.809 1.498 26.993 2.81 31.867.936 4.874-1.873 14.808-3.557 17.808-2.809 3 .749 2.812 1.873 2.812 1.873s15.933-.188 18.745 0c2.812.187 2.812-2.81 2.812-2.81v-5.62s1.312-4.681.937-7.492c-.375-2.81-1.874-3.746-1.874-3.746"/><path stroke="#C0CED5" stroke-width="2" d="M1182.269 522.765s-9 6.744-10.311 7.494c-1.312.748-2.81 2.808-3.749 3.744-.937.937-5.624 1.311-6.56 2.81-.938 1.5-9.748 2.436-14.997.937-5.25-1.498-10.31.188-12.185 1.873-1.875 1.686-1.875 1.873-1.875 1.873s9 8.429 19.684 9.366c10.684.936 11.247-.937 11.247-.937"/><path stroke="#C0CED5" stroke-width="2" d="M1225.383 303.616s-1.313 3.558-1.874 5.62c-.564 2.06-5.625 5.618-5.625 5.618s2.062-.375 2.812 2.81c.75 3.184 1.5 22.29 1.875 24.35.374 2.06 1.687 33.715.938 36.525-.75 2.81-1.126 10.115-.938 12.175.187 2.06 4.874 12.737 4.685 19.667-.186 6.93-.374 14.984 0 17.795.376 2.808 1.313 9.177 2.812 14.984 1.5 5.807 2.812 26.785.938 42.144-1.874 15.359-4.499 33.34-5.623 38.398-1.125 5.057-2.438 6.557-1.874 8.429.561 1.872 0 5.807 0 9.365s-2.625 12.363-2.813 13.112c-.187.75-27.743-4.308-33.741-11.239-6-6.93-10.31-11.238-10.31-11.238s5.998-5.432 5.624-14.048c-.376-8.616-4.687-7.493-.938-13.112 3.749-5.619 5.436-11.238 4.686-14.048-.75-2.81-2.812-5.808-.937-10.302 1.875-4.496 1.125-7.305-.937-14.047-2.062-6.744-4.311-25.661-7.499-31.843-3.187-6.181-8.622-13.112-12.184-17.794-3.562-4.683-6.186-19.856-7.498-27.16-1.313-7.305-5.624-37.65-5.624-50.574 0-12.923-2.624-14.609 0-21.54 2.625-6.93.563-11.238-.937-14.047-1.5-2.81-1.875-2.81-1.875-2.81"/><path stroke="#C0CED5" stroke-width="2" d="M1157.899 305.49c-.75 4.869-.75 14.234 0 21.539.75 7.305 2.624 18.17 4.686 23.413 2.062 5.245 5.437 12.738 5.624 20.604.188 7.868.188 10.678 2.812 15.922 2.624 5.244 2.624 14.235 2.811 16.859.188 2.62-1.124 7.677 1.875 10.3 3 2.623 3 11.238 5.624 13.111 2.624 1.874 6.373 8.617 6.56 14.048.188 5.432 3.562 16.297 2.813 20.605-.75 4.307-4.125 10.676-3.749 13.112.374 2.433 1.687 6.554 2.81 8.427 1.126 1.874 2.063 8.804 0 10.303-2.061 1.498-4.685 7.492-4.685 7.492m-10.31-395.219s-1.688 9.553-2.812 14.985a228.67 228.67 0 0 0-1.874 10.302m7.498-32.78c-.75.938-.938 7.493-.938 7.493h2.812M1118.534 173.438l8.435-7.494 2.185 3.147-8.323 7.764"/><path stroke="#C0CED5" stroke-width="2" d="M1104.475 211.835s-12.372-1.311-14.06-2.81c-1.686-1.498-3.749-4.683-3.749-4.683s-2.623-2.622-2.81-5.618c-.188-2.998-3 .187-4.687-5.62-1.687-5.805-4.687-10.301-4.687-10.301l7.498 5.618.937 4.683v-3.746l6.561 5.62v4.683l.938-4.683 7.498 5.619s-3.187 4.12-.937 4.682m-44.052-51.51s35.992-34.838 38.427-34.65c2.439.187 64.672 48.7 64.672 48.7s-2.061 8.429-3.748 14.048c-1.688 5.618-1.875 9.365-1.875 9.365m8.436-34.652c0-.937 13.684-31.094 15.933-39.335 2.25-8.242 7.123-15.546 7.499-17.794.374-2.248 3.748-5.62 3.748-5.62"/><path stroke="#C0CED5" stroke-width="2" d="M1155.088 168.755s4.311-23.414 6.56-30.906c2.25-7.492 11.06-27.535 12.184-30.906 1.126-3.371 4.687-14.985 4.687-14.985l1.875-2.81M1098.851 191.232l-46.863-35.589-17.808-5.619 84.354 66.494h10.31"/><path stroke="#C0CED5" stroke-width="2" d="M1147.59 220.264s-29.806.187-33.742 0c-3.937-.188-6.748-1.311-7.499-1.874-.75-.56-3.75-6.555-3.75-6.555s7.125.375 7.5-.937c.374-1.31 0-3.746 0-3.746m16.87-22.477s-3-3.746-5.624-6.555c-2.624-2.81-5.81-7.868-8.435-6.557-2.624 1.313-4.686.938-4.686.938s-2.812-.938-3.749 3.747l-.938 4.681s-3.748 2.435-2.812 6.556c.938 4.12-1.874 4.683 0 6.556 1.875 1.873 4.874 5.245 7.499 7.493 2.624 2.247 10.31 2.808 10.31 2.808"/><path stroke="#C0CED5" stroke-width="2" d="M1132.592 188.421l-5.623-1.872s-5.998 3.184-6.56 10.3c-.563 7.119 0 9.367 0 9.367l3.748 5.62"/><path stroke="#C0CED5" stroke-width="2" d="M1249.752 142.531s-11.623 13.487-12.185 17.794c-.563 4.31-17.246 37.65-25.307 47.763-8.06 10.115-13.87 14.048-17.808 14.986-3.936.937-45.363-2.249-50.612-2.81-5.248-.562-16.31-3.185-17.808-3.746-1.5-.562-5.81-12.55-.937-20.604 4.873-8.055 9.372-7.493 9.372-7.493l20.62 2.81-2.811 3.747s-1.126-2.623 9.373-4.684c10.497-2.06 11.433-4.869 11.247-5.619-.188-.748 6.56-4.682 6.56-4.682s0-1.124 1.875-6.555c1.874-5.433 5.998-12.363 7.498-14.05 1.5-1.684 2.062-5.806 1.875-8.428-.188-2.622 3.936-7.492 4.686-9.365.75-1.873 2.062-7.68 2.812-9.366.75-1.685 2.811-5.993 3.749-9.364m-52.487 178.877s-8.81 4.496-10.31-16.857 5.436-50.2 5.623-54.319c.188-4.122 1.875-8.43 1.875-8.43"/><path stroke="#C0CED5" stroke-width="2" d="M1216.01 63.862h1.874l2.812 11.238s20.245 11.425 29.992 41.209c9.748 29.782-5.248 49.073-8.435 64.62-3.187 15.547-3.561 32.03-4.686 51.51-1.126 19.48 1.686 37.835 2.812 45.89 1.125 8.054-.938 24.35-.938 24.35l-5.623-3.746.937 5.619s-37.49.937-57.173 1.873c-19.683.937-25.306-2.81-25.306-2.81s-5.437-2.434-5.624-10.301c-.188-7.867.562-44.767 0-50.573"/><path stroke="#C0CED5" stroke-width="2" d="M1206.637 58.243h5.623l3.75 7.493s-14.434 4.494-22.494 16.857c-8.061 12.362-9.373 14.048-9.373 14.048l-4.687-5.619s-1.5-2.997 12.184-16.859c13.684-13.859 17.808-13.11 17.808-13.11m-10.31-12.175l8.437 11.237m-34.68-21.54c3.374.937 7.5 3.748 7.5 13.113 0 9.365-3.75 6.555-3.75 6.555m-29.993 1.872l-3.75 4.685s-1.56-.604.944.096m-8.442-4.78s2.5-4.214 7.499-3.746c4.998.468 2.812 1.873 2.812 1.873s-5.624-.623-6.562 1.872c-.936 2.498 0 1.874 0 1.874l-3.749-1.874z"/><path stroke="#C0CED5" stroke-linecap="round" stroke-linejoin="round" stroke-width="2" d="M1146.652 4.86c-3.515 2.342-6.795 6.79-10.31 9.367-3.515 2.574-14.293 9.364-14.997 15.919-.702 6.556 2.578 8.43 3.75 9.366 1.17.937 3.749 5.62 3.749 5.62s7.498-4.918 12.185-7.492c4.686-2.577 10.075-1.874 11.247 1.872 1.17 3.747 2.108 8.196 3.748 10.302 1.64 2.108 7.499 6.088 7.499 10.301 0 4.215 2.812 15.688.937 16.86-1.875 1.17-9.372 2.808-9.372 2.808l-6.562-1.872 2.812 3.745h7.499s2.812 6.323 1.874 6.557c-.938.234-1.172 7.258 8.436 4.682 9.606-2.575 10.31-5.854 11.247-7.492.937-1.64 2.577-5.62 1.875-8.429-.704-2.81-2.578-12.41-8.437-14.985-5.858-2.575-12.419-13.58-9.372-17.794 3.046-4.215 4.687-9.6 10.31-5.62 5.624 3.982 11.716 9.601 15.934 11.24 4.217 1.639 9.372-.937 9.372-.937s-6.56-7.493-7.498-15.921c-.938-8.43-3.046-23.18-12.184-27.16-9.138-3.98-22.026-6.322-27.182-3.746-5.154 2.576-3.046.468-6.56 2.81z"/><path stroke="#C0CED5" stroke-width="2" d="M1129.781 44.195s.625 4.995 2.811 8.429c2.188 3.434 1.875 6.244 2.812 7.491.938 1.25 3.906 1.562 4.687 2.81.781 1.249 1.019 11.783.938 14.986-.095 3.683 3.748 2.81 5.623.935 1.874-1.872 1.717-2.808 2.812-1.872 1.093.937 2.812 1.872 2.812 1.872m1.874 3.747s-2.03 2.03 1.874 2.81c3.906.78 4.687 3.746 4.687 3.746"/></g></g></svg>
