<svg xmlns="http://www.w3.org/2000/svg" width="1026" height="492" viewBox="0 0 1026 492">
  <style>
    * {
      stroke-width: 5;
    }
    #svg-girl-nb {
      display: none;
    }
    @media (min-width: 720px) {
      #svg-girl-nb {
        display: block;
      }
      * {
        stroke-width: 3;
        stroke: 3;
      }
    }
  </style>
  <g fill="none" fill-rule="evenodd" transform="translate(1)">
    <g id="svg-girl-ph" transform="translate(0 13.239)">
      <path fill="#FFF" stroke="#C0CED5" stroke-width="2" d="M4.50704225,444.519341 C3.99143662,445.424678 1.28721127,453.831633 0.901408451,457.194053 C0.514704225,460.556473 1.8028169,468.058092 1.8028169,468.058092 C1.8028169,468.058092 3.99143662,471.291049 10.8169014,469.868765 C17.6414648,468.445576 27.0422535,464.436746 27.0422535,464.436746 C27.0422535,464.436746 47.9035493,453.185223 40.5633803,451.762034 C33.2232113,450.338845 20.603493,445.295215 18.0272676,443.614005 C15.4528451,441.932795 5.02174648,443.614005 4.50704225,444.519341 Z"/>
      <path stroke="#C0CED5" stroke-width="2" d="M1.8028169 465.342082C1.8028169 465.342082 3.6056338 467.039588 9.01408451 466.247419 14.4225352 465.455249 18.028169 464.437651 18.028169 464.437651M17.5774648 447.236256C19.8174648 447.236256 21.6338028 449.465195 21.6338028 452.215607 21.6338028 454.96602 19.8174648 457.194958 17.5774648 457.194958 15.3374648 457.194958 13.5211268 454.96602 13.5211268 452.215607 13.5211268 449.465195 15.3374648 447.236256 17.5774648 447.236256z"/>
      <path fill="#FFF" stroke="#C0CED5" stroke-linejoin="round" stroke-width="2" d="M47.7746479,449.046024 C47.7746479,449.046024 55.1788169,452.386716 62.1971831,451.762034 C67.052169,451.329283 72.3695775,456.288717 71.2112676,459.910063 C70.0520563,463.531409 63.4843944,469.350912 57.6901408,469.868765 C51.8949859,470.385712 43.6534085,470.903564 40.5633803,473.490111 C37.4724507,476.076658 26.7844507,478.792667 22.5352113,477.111457 C18.2850704,475.430247 17.8992676,469.868765 18.0272676,465.342082 C18.1570704,460.815399 19.0584789,454.736064 20.7323944,452.66737 C22.4063099,450.597771 30.5189859,443.355079 32.4507042,442.708668 C34.3824225,442.062258 47.7746479,449.046024 47.7746479,449.046024 Z"/>
      <path stroke="#C0CED5" stroke-width="2" d="M54.084507,450.856697 C54.084507,450.856697 58.8169014,452.101535 62.1971831,456.288717 C65.5774648,460.475898 64,463.532314 64,463.532314"/>
      <path stroke="#C0CED5" stroke-width="2" d="M70.9669859 456.747722C70.2134085 458.065892 67.6407887 461.934395 62.1971831 464.436746 55.5492958 467.492256 48.4507042 466.473753 43.2676056 468.058092 38.084507 469.642431 34.4680563 475.802341 24.3380282 473.490111 18.180507 472.084123 18.028169 470.775007 18.028169 470.775007M54.084507 450.856697C54.084507 450.856697 57.8028169 453.572707 58.5915493 456.288717M48.6760563 449.046024C48.6760563 449.046024 52.056338 451.648867 53.1830986 454.478043 54.3098592 457.30722 53.1830986 456.288717 53.1830986 456.288717M45.971831 448.140688C45.971831 448.140688 47.7746479 451.422533 47.7746479 453.572707 47.7746479 455.722881 47.7746479 457.194053 47.7746479 457.194053"/>
      <path fill="#FFF" stroke="#C0CED5" stroke-width="2" d="M2.70422535,449.951361 C2.70422535,449.951361 1.9308169,444.389878 2.70422535,442.708668 C3.47673239,441.027458 4.63504225,441.673869 4.50704225,439.087322 C4.37814085,436.500776 3.73453521,436.759702 3.6056338,434.560639 C3.47673239,432.362482 2.31752113,434.81866 1.8028169,430.033957 C1.28721127,425.248348 1.54501408,402.097987 1.8028169,395.631168 C2.05971831,389.164349 3.09002817,373.644164 2.70422535,369.376408 C2.31752113,365.108651 9.65769014,345.319805 10.8169014,340.405638 C11.9752113,335.491471 15.7106479,323.980117 15.3239437,319.582897 C14.9372394,315.185678 13.9069296,286.472929 13.5211268,281.558762 C13.1344225,276.644595 12.4908169,277.161543 11.7183099,270.694724 C10.9458028,264.227905 9.78659155,264.098441 9.01408451,260.736021 C8.24067606,257.373602 6.95346479,255.820949 6.30985915,251.682656 C5.66535211,247.544363 13.2633239,232.024178 24.3380282,230.859915 C35.411831,229.695652 58.0759437,223.358297 64,243.534627 C69.9231549,263.710957 67.8625352,280.007015 63.0985915,287.896118 C58.3337465,295.785221 36.5710423,362.391736 36.9577465,371.187081 C37.3435493,379.982425 34.2535211,399.252514 34.2535211,401.063187 C34.2535211,402.87386 26.0119437,455.253917 24.3380282,453.572707 C22.6632113,451.891497 18.4139718,451.373644 12.6197183,450.856697 C6.82456338,450.338845 2.70422535,449.951361 2.70422535,449.951361 Z"/>
      <path fill="#FFF" stroke="#C0CED5" stroke-width="2" d="M18.9295775 454.478043C18.9295775 454.478043 21.7627042 453.054854 20.7323944 450.856697 19.7020845 448.657635 18.8006761 444.002394 18.9295775 442.708668 19.0584789 441.414942 20.603493 435.077586 20.7323944 432.749966 20.8612958 430.421441 20.9892958 425.118884 21.6338028 422.791264 22.2774085 420.462739 22.4063099 415.160182 22.5352113 412.832562 22.6632113 410.504036 22.2774085 392.785695 24.3380282 380.240446 26.3977465 367.695198 29.8753803 359.934653 30.6478873 353.08035 31.4203944 346.226047 31.4203944 335.362008 33.3521127 326.82559 35.2829296 318.289171 37.0857465 314.797288 36.9577465 307.813522 36.8288451 300.829756 38.3738592 282.981046 38.7605634 277.032079 39.1463662 271.082208 35.5407324 266.814451 35.1549296 265.262704 34.7682254 263.710957 30.1322817 262.805621 28.8450704 258.020012 27.5569577 253.234403 23.9513239 244.828353 24.3380282 240.818617 24.723831 236.808882 63.7421972 230.213505 68.5070423 230.859915 73.2718873 231.506326 80.7400563 235.516061 82.028169 237.197271 83.3153803 238.878481 90.7844507 240.818617 90.1408451 242.62929 89.496338 244.439964 86.5352113 259.701222 85.6338028 262.546695 84.7323944 265.392167 80.7400563 283.369435 80.2244507 285.180108 79.7097465 286.990781 73.1429859 310.658995 68.5070423 324.10958 63.8710986 337.560165 61.0379718 341.310975 60.3943662 344.932321 59.7498592 348.553667 59.2351549 357.736496 58.5915493 363.039052 57.9470423 368.341608 53.3110986 398.605198 52.2816901 402.87386 51.2513803 407.141617 48.2893521 411.151352 48.6760563 415.548572 49.0618592 419.945791 46.8732394 426.025126 45.971831 429.12862 45.0704225 432.232114 45.8429296 433.655303 45.971831 435.465976 46.1007324 437.276649 43.7823099 442.191721 44.1690141 443.614005 44.5548169 445.036289 45.971831 447.105888 45.971831 448.140688 45.971831 449.175487 45.1984225 458.09939 33.3521127 458.09939 21.5049014 458.09939 18.9295775 454.478043 18.9295775 454.478043zM82.028169 124.935539C82.028169 124.935539 88.487662 112.864687 91.0422535 110.450154 93.5959437 108.035621 98.2535211 99.133447 102.760563 95.0594326 107.267606 90.9854181 108.318648 89.174745 109.070423 89.6274132 109.821296 90.0800815 110.572169 94.0029048 108.169014 95.0594326 105.764958 96.1159603 103.360901 100.189975 105.464789 99.5861153 107.567775 98.9822558 114.779042 98.0769193 117.183099 96.8701057 119.586254 95.663292 126.046648 91.7395634 125.295775 94.154096 124.544 96.5686286 121.690141 101.396788 121.690141 101.396788 121.690141 101.396788 121.539606 104.716658 120.787831 105.018135 120.036958 105.319612 120.036958 107.582953 118.985915 108.639481 117.933972 109.696009 117.183099 111.35549 117.183099 111.35549 117.183099 111.35549 117.933972 112.713495 114.478873 114.976837 111.022873 117.240178 108.619718 118.89966 105.464789 119.503519 102.309859 120.107379 100.807211 120.408856 97.3521127 124.935539 93.8961127 129.462222 89.2394366 138.515587 89.2394366 138.515587L82.028169 124.935539z"/>
      <path fill="#FFF" stroke="#C0CED5" stroke-width="2" d="M76.6197183,128.556885 L82.9295775,122.219529 C82.9295775,122.219529 88.9383662,123.879011 92.8450704,129.462222 C96.7508732,135.045432 97.3521127,139.420924 97.3521127,139.420924 C97.3521127,139.420924 88.487662,151.794158 79.3239437,157.527655 C70.1593239,163.261151 72.1126761,140.32626 72.1126761,140.32626 L76.6197183,128.556885 Z"/>
      <path fill="#FFF" stroke="#C0CED5" stroke-linecap="round" stroke-linejoin="round" stroke-width="2" d="M115.380282,77.8580381 C115.380282,77.8580381 114.349972,78.1803379 114.11831,78.761564 C112.310085,83.3018268 104.221746,103.611242 102.279211,108.489195 C102.00969,109.165481 102.760563,109.544817 102.760563,109.544817 L114.478873,109.544817 C114.478873,109.544817 115.551549,109.115688 115.853521,108.35611 C117.867268,103.300711 125.70231,83.6268426 127.588958,78.8883111 C127.852169,78.2283207 127.098592,77.8580381 127.098592,77.8580381 L115.380282,77.8580381 Z"/>
      <path fill="#FFF" stroke="#C0CED5" stroke-width="2" d="M51.3802817,80.5740477 L53.1830986,74.2366919 C53.1830986,74.2366919 59.7183099,77.2922027 62.1971831,75.1420284 C64.6760563,72.9918541 62.6478873,72.6523529 64,71.5206822 C65.3521127,70.3890115 65.6901408,70.5021786 66.7042254,69.7100091 C67.7183099,68.9178396 67.6056338,66.9939995 67.6056338,66.9939995 C67.6056338,66.9939995 68.6197183,67.7861689 69.4084507,65.1833264 C70.1971831,62.5804838 70.3098592,62.4673167 70.3098592,62.4673167 C70.3098592,62.4673167 73.3521127,63.0331521 73.0140845,59.7513071 C72.6760563,56.4694621 72.5633803,55.3377914 72.1126761,53.4139512 C71.6619718,51.490111 72.1126761,48.8872684 72.1126761,48.8872684 C72.1126761,48.8872684 73.6901408,47.3029295 73.9145915,45.2659222 C74.1408451,43.228915 72.7887324,41.1919078 73.0140845,38.9285664 C73.2394366,36.665225 56.2253521,-0.566740681 33.3521127,22.6325084 C10.4788732,45.8317576 29.1830986,63.4858203 28.8450704,65.1833264 C28.5070423,66.8808324 27.0422535,76.9527015 27.0422535,76.9527015 L51.3802817,80.5740477 Z"/>
      <path fill="#FFF" stroke="#C0CED5" stroke-width="2" d="M61.2957746,44.3605857 C61.2957746,44.3605857 62.7605634,36.8915591 57.6901408,38.0232298 C52.6197183,39.1549005 52.3943662,43.228915 52.2816901,44.3605857 C52.1690141,45.4922564 52.2816901,51.6032781 52.2816901,51.6032781 C52.2816901,51.6032781 45.7464789,52.9612829 45.971831,55.2246243 C46.1971831,57.4879657 47.2112676,58.5064693 45.971831,58.8459705 C44.7323944,59.1854717 39.6619718,57.940634 39.6619718,57.940634 C39.6619718,57.940634 34.7042254,58.053801 33.3521127,59.7513071 C32,61.4488131 27.0422535,62.4673167 27.0422535,62.4673167 C27.0422535,62.4673167 12.6197183,61.2224789 17.1267606,46.1712588 C21.6338028,31.1200386 20.2816901,31.3463728 20.7323944,28.0645278 C21.1830986,24.7826828 18.8169014,20.1428329 25.2394366,15.389816 C31.6619718,10.6367991 44.8450704,3.62044087 60.3943662,9.95779673 C75.943662,16.2951526 73.9145915,32.5912105 73.9145915,33.4965471 C73.9145915,34.4018836 69.4084507,37.0047262 67.6056338,38.9285664 C65.8028169,40.8524065 63.0985915,45.2659222 63.0985915,45.2659222 L61.2957746,44.3605857 Z"/>
      <path fill="#FFF" stroke="#C0CED5" stroke-width="2" d="M26.1408451 27.1591912C26.5915493 26.9328571 35.3802817 23.8773462 36.9577465 20.8218353 38.5352113 17.7663245 39.0985915 9.05246018 38.7605634 8.14712363 38.4225352 7.24178707 32.9014085-2.03791258 27.0422535 1.80976777 21.1830986 5.65744811 23.6619718 8.5997919 21.6338028 9.05246018 19.6056338 9.50512845 16.3785915 11.6127519 16.2253521 19.9164988 16.1126761 26.0275205 19.3802817 27.8381936 21.6338028 28.0645278 23.8873239 28.2908619 25.6901408 27.3855253 26.1408451 27.1591912zM63.0985915 93.2487595C63.0985915 93.2487595 57.8397746 80.1213795 48.6760563 76.047365 39.5114366 71.9733505 28.0932958 71.369491 25.2394366 71.5206822 22.3846761 71.6718734 21.6338028 73.3313553 21.6338028 73.3313553L20.7323944 84.1953939 63.0985915 93.2487595z"/>
      <path fill="#FFF" stroke="#C0CED5" stroke-width="2" d="M19.8309859,83.2900574 C19.8309859,83.2900574 8.71301408,94.9082414 7.21126761,101.396788 C5.70861972,107.885335 2.85385915,126.746212 2.70422535,130.367558 C2.55369014,133.988904 6.45949296,157.829132 7.21126761,163.86501 C7.96214085,169.900889 7.81160563,197.060986 7.21126761,209.131838 C6.61002817,221.20269 6.15932394,238.404085 6.30985915,241.723954 C6.45949296,245.043823 7.21126761,255.304002 7.21126761,255.304002 C7.21126761,255.304002 8.71301408,261.792549 23.4366197,259.830685 C38.1593239,257.868821 46.572169,252.436801 52.2816901,248.06131 C57.9903099,243.684913 61.2957746,237.348462 67.6056338,237.197271 C73.9145915,237.04608 85.6338028,237.197271 85.6338028,237.197271 C85.6338028,237.197271 85.0325634,203.095959 82.9295775,195.55179 C80.8256901,188.00762 77.5211268,142.589602 74.8169014,136.704914 C72.1126761,130.820226 71.6619718,109.846294 70.3098592,105.018135 C68.9577465,100.189975 65.8028169,92.3434229 61.2957746,89.6274132 C56.7887324,86.9114036 30.1971831,79.51752 26.1408451,79.6687112 C22.084507,79.8189971 19.8309859,83.2900574 19.8309859,83.2900574 Z"/>
      <path fill="#FFF" stroke="#C0CED5" stroke-width="2" d="M84.7323944,235.386598 C84.7323944,235.386598 63.6989296,224.975228 58.5915493,219.09054 C53.4832676,213.205853 33.0510423,206.415828 27.0422535,201.889146 C21.0325634,197.362463 15.3239437,195.55179 15.3239437,195.55179 L12.6197183,185.593088 L10.8169014,194.646453 L5.4084507,194.646453 L3.6056338,194.646453 C3.6056338,194.646453 5.10828169,172.314516 5.4084507,169.29703 C5.70861972,166.279543 7.51143662,151.944444 4.50704225,142.136933 C1.50174648,132.329422 -1.65228169,106.979094 4.50704225,98.6807788 C10.6663662,90.3815586 21.1830986,82.6861979 22.5352113,82.3847208 C23.8873239,82.0832438 43.7183099,80.8755248 45.971831,82.3847208 C48.2253521,83.8930115 52.2816901,87.8167401 52.2816901,87.8167401 C52.2816901,87.8167401 37.2579155,83.7427257 31.5492958,101.396788 C25.8406761,119.050851 30.3468169,137.308773 32.4507042,139.420924 C34.5536901,141.533979 38.7605634,147.267475 43.2676056,145.758279 C47.7746479,144.249083 59.7931268,139.420924 64,127.651548 C68.2059718,115.882173 64.9014085,104.112798 64.9014085,104.112798 C64.9014085,104.112798 79.4735775,121.314193 81.1267606,136.704914 C82.7790423,152.095635 80.5255211,160.545141 81.1267606,165.675684 C81.728,170.806226 85.6338028,182.122933 85.6338028,194.646453 C85.6338028,207.169974 85.9339718,227.238569 86.5352113,229.954579 C87.1355493,232.670588 84.7323944,235.386598 84.7323944,235.386598 Z"/>
      <path fill="#FFF" stroke="#C0CED5" stroke-width="2" d="M82.9295775,229.954579 L83.8309859,247.155973 L87.4366197,248.966646 C87.4366197,248.966646 88.0369577,251.078796 90.1408451,246.250637 C92.243831,241.422477 90.5915493,241.422477 92.8450704,239.007944 C95.0985915,236.593412 98.2535211,226.03085 95.5492958,222.711886 C92.8450704,219.392017 87.4366197,213.658521 87.4366197,213.658521 L82.028169,223.617223 L82.9295775,229.954579 Z"/>
      <path fill="#FFF" stroke="#C0CED5" stroke-linejoin="round" stroke-width="2" d="M82.9295775,229.954579 C82.9295775,229.954579 86.6857465,235.235407 92.8450704,228.143906 C99.0043944,221.052404 99.3045634,218.788158 97.3521127,215.469194 C95.3987606,212.149325 92.544,208.527979 91.0422535,206.415828 C89.5396056,204.303678 85.4832676,200.832618 82.9295775,198.267799 C80.3758873,195.702076 80.0748169,191.477775 78.4225352,189.214434 C76.7693521,186.951093 74.515831,182.122933 72.1126761,181.066405 C69.7086197,180.009877 67.0043944,177.897727 67.6056338,171.107703 C68.2059718,164.317679 70.9101972,143.947606 70.3098592,132.178231 C69.7086197,120.408856 72.1126761,105.470803 71.2112676,101.396788 C70.3098592,97.3227739 67.3054648,92.9472824 64,93.2487595 C60.6945352,93.5502365 48.6760563,102.603602 44.1690141,107.733239 C39.6619718,112.864687 35.1549296,129.613413 36.056338,133.988904 C36.9577465,138.364396 39.8116056,147.568953 40.5633803,151.190299 C41.3142535,154.811645 41.6144225,166.429829 41.4647887,172.918376 C41.3142535,179.406923 38.0087887,185.291611 42.3661972,190.11977 C46.7227042,194.94793 54.8353803,201.889146 56.7887324,204.605155 C58.7411831,207.321165 58.7411831,214.563857 65.8028169,217.279867 C72.8635493,219.995877 82.9295775,229.954579 82.9295775,229.954579 Z"/>
      <path fill="#FFF" d="M42.3661972,90.5336551 C42.3661972,90.5336551 49.3214648,86.7710764 54.084507,88.722982 C58.8475493,90.6748876 64.2938592,92.548029 65.8028169,95.0603379 C67.3117746,97.5726468 45.971831,115.883079 45.971831,115.883079 L35.1549296,111.356396 L42.3661972,90.5336551 Z"/>
    </g>
    <g id="svg-girl-nb" transform="translate(73.628 205.805)">
      <path fill="#FFF" d="M280.860054,180.676993 C280.860054,180.676993 276.166135,189.777702 274.39101,189.044199 C272.616788,188.310695 268.417916,185.949504 264.227175,184.396255 C260.035531,182.842099 258.940644,184.698553 248.518445,177.888227 C238.095343,171.078809 227.968547,166.612426 218.025135,163.944397 C208.08082,161.275461 196.77151,149.070071 196.77151,149.070071 L184.759377,150.929248 L175.518789,150.929248 L151.49362,158.365957 L180.138631,188.11461 L206.012099,197.410496 C206.012099,197.410496 225.717345,200.294582 232.809716,205.777702 C236.922767,210.805106 238.353707,210.425645 238.353707,210.425645 C238.353707,210.425645 235.862208,219.963915 242.97355,224.370383 C250.084892,228.776851 255.910736,233.667177 255.910736,233.667177 C255.910736,233.667177 247.999007,222.75722 254.986586,222.511206 C261.974166,222.264284 267.922868,226.22956 267.922868,226.22956 C267.922868,226.22956 279.542035,224.841532 279.935905,216.004085 C280.329775,207.16573 276.239308,205.777702 276.239308,205.777702 C276.239308,205.777702 272.133484,208.643631 270.695316,209.496057 C269.257148,210.348482 266.07457,208.566468 266.07457,208.566468 C266.07457,208.566468 268.919287,203.35478 276.239308,203.918525 C283.560232,204.481362 288.904579,207.134865 288.252344,194.62173 C289.278574,180.40556 280.860054,180.676993 280.860054,180.676993 Z"/>
      <path stroke="#C0CED5" stroke-width="2" d="M192.699111,196.273929 C205.058138,198.00783 215.382773,199.269674 221.952995,202.264511 C228.523217,205.261163 231.651593,207.153021 232.74648,207.153021 C233.841366,207.153021 235.375291,209.624057 237.596682,211.094695 C245.755031,216.499745 250.002685,213.929759 260.171036,217.87234 C270.339388,221.814014 273.721611,216.644085 273.721611,213.333333 C273.721611,210.021674 269.195719,212.356539 264.502703,206.680057 C259.809688,201.003574 252.300862,199.742638 251.049693,198.638752 C249.79762,197.534865 245.886924,194.14695 245.886924,194.14695 C245.886924,194.14695 232.690471,195.210894 226.296406,192.30956 C219.343154,189.155858 213.58416,185.459291 208.108825,182.305589 C202.633489,179.151887 206.465591,180.978383 198.956766,179.559489 C191.447941,178.140596 173.614481,173.410043 165.792186,176.248738 C157.970794,179.086525 160.004284,192.332255 165.47962,194.223206 C170.954955,196.115972 180.340987,194.539121 192.699111,196.273929 Z"/>
      <path fill="#FFF" stroke="#C0CED5" stroke-width="2" d="M154.528948,153.700766 C166.105656,151.492993 167.200543,151.492993 181.435873,150.705021 C195.671204,149.916142 194.576317,147.078355 197.705597,149.12817 C200.833973,151.177986 207.560478,158.431319 217.259979,161.742071 C226.958577,165.052823 244.635754,174.040965 250.11109,177.982638 C255.586425,181.924312 266.536193,184.099404 269.039436,185.518298 C271.542679,186.938099 273.648438,189.369191 277.335098,187.914894 C285.738261,184.600511 288.402304,191.474383 286.368814,196.992908 C284.335325,202.51234 266.600332,202.123801 263.784523,202.439716 C260.968713,202.754723 256.681312,200.531518 251.988296,197.377816 C247.29528,194.223206 240.255305,197.741844 228.053464,194.115177 C215.851623,190.488511 206.309308,181.957901 203.806065,180.538099 C201.302822,179.119206 190.979091,178.298553 184.095399,175.302809 C177.212611,172.306156 132.158756,173.410043 134.974566,165.21078 C137.791278,157.011518 142.953144,155.908539 154.528948,153.700766 Z"/>
      <path fill="#FFF" stroke="#C0CED5" stroke-width="2" d="M274.045018,188.705589 C274.671055,187.758752 279.051504,177.351716 284.369653,180.821333 C289.688705,184.290043 290.314742,190.912454 289.219855,197.061901 C288.124065,203.212255 286.476315,205.932936 279.593527,205.617021 C272.710738,205.302014 274.539162,203.567206 272.818239,205.617021 C271.097316,207.666837 269.54171,209.702128 268.301381,209.702128 C267.061052,209.702128 264.029337,205.833078 261.526094,204.255319 C259.023754,202.679376 255.969455,201.010837 253.395749,199.716312 L254.021785,197.849872 C254.021785,197.849872 259.653404,198.953759 266.37991,199.269674 C273.106415,199.585589 286.404046,197.061901 282.9622,192.646355 C279.520354,188.231716 273.419885,189.651518 274.045018,188.705589 Z"/>
      <path fill="#FFF" d="M151.314752,145.248227 C151.314752,145.248227 139.01896,137.681702 137.633188,126.758128 C136.246513,115.835461 136.246513,79.1139858 131.164144,74.6984397 C126.082678,70.2828936 113.608019,66.3321418 113.608019,66.3321418 L96.0509911,63.5424681 L60.0127857,80.2759716 L52.6204955,83.0656454 C52.6204955,83.0656454 48.6935389,88.4107801 46.1523544,99.7991489 C43.61117,111.18661 39.4529502,120.01861 38.7600642,124.89895 C38.0671781,129.779291 37.835915,136.984511 37.835915,136.984511 L117.303713,154.647603 L153.341918,151.858837 C153.691354,150.455773 154.069565,149.462638 154.476553,148.879433 C154.88354,148.296227 155.937474,147.539726 157.638354,146.609929 C157.032812,145.203143 156.430565,144.446642 155.83161,144.340426 C154.724196,144.144041 153.218577,144.446642 151.314752,145.248227 Z"/>
      <path fill="#FFF" stroke="#C0CED5" stroke-width="2" d="M268.883153,210.306723 C268.883153,210.911319 271.385492,206.050043 272.950132,205.57617 C274.514771,205.103206 278.112901,203.84227 278.894317,206.36505 C279.676637,208.88783 280.302674,208.729872 280.772427,209.991716 C281.241277,211.252652 282.492447,220.082837 277.486864,223.236539 C272.481282,226.389333 267.4757,227.49322 267.4757,227.49322 C267.4757,227.49322 266.37991,226.075234 264.81527,226.075234 C263.251534,226.075234 255.586425,221.50173 253.083182,223.551546 C250.579939,225.601362 261.074408,236.028369 261.074408,236.028369 L258.364293,238.751773 C258.364293,238.751773 251.988296,231.277844 248.702733,228.755064 C245.41717,226.232284 239.160418,225.759319 237.752062,218.348028 C236.344609,210.937645 237.909249,210.779688 237.909249,210.779688 C237.909249,210.779688 249.79762,207.941901 255.586425,210.464681 C261.374327,212.987461 270.447792,216.141163 270.604076,212.829504 C270.760359,209.517844 268.883153,209.702128 268.883153,210.306723 Z"/>
      <path stroke="#C0CED5" stroke-width="2" d="M146.86384 152.281872C148.42848 153.227801 151.556856 153.227801 151.556856 153.227801 151.556856 153.227801 154.216382 151.335035 154.216382 150.074099 154.216382 148.813163 154.842418 147.236312 156.719625 147.236312 158.596831 147.236312 158.909398 146.920397 157.658228 145.501504 156.406155 144.081702 156.249871 144.397617 154.998702 144.081702 153.746629 143.766695 152.218124 144.794326 152.218124 144.794326 152.218124 144.794326 151.400572 145.974468 151.088006 145.343546 150.774536 144.712624 147.802443 142.032794 147.333593 141.401872 146.86384 140.771858 142.483391 137.145191 141.544788 136.040397 140.607088 134.937418 139.981051 129.575943 138.729882 125.63427 137.477808 121.692596 136.695489 104.505191 136.695489 99.6175887 136.695489 94.729078 135.756885 86.2148085 133.879679 79.2764823 132.002473 72.3390638 128.874097 72.8120284 125.119684 70.4472057 121.365272 68.0814752 118.235992 69.0274043 110.4146 63.8247943 102.593209 58.6212766 76.1551338 67.451461 68.647212 71.2351773 61.1383868 75.0198014 54.5681648 78.8044255 52.8472418 81.1692482 51.1263187 83.5349787 48.1533226 88.8955461 46.433303 94.2561135 44.71238 99.6175887 42.2091372 111.915574 40.9579674 114.123348 39.7058943 116.331121 37.0463682 127.210213 37.0463682 132.41373 37.0463682 137.617248 145.300104 151.335035 146.86384 152.281872zM59.0886365 130.475574C59.0886365 130.475574 57.254792 121.511943 57.2403381 116.530837"/>
      <path stroke="#C0CED5" stroke-width="2" d="M116.379563,92.3606241 C116.379563,92.3606241 114.719166,103.155291 116.379563,117.460426 C118.039961,131.766468 121.000309,141.631546 121.000309,141.631546"/>
      <path fill="#FFF" stroke="#C0CED5" stroke-width="2" d="M60.5259008 62.6382979C64.1240301 55.3849645 65.3616493 50.8949787 65.3616493 47.899234 65.3616493 44.9025816 63.0146897 39.3840567 64.891896 34.811461 66.7700057 30.239773 67.5514222 22.6705248 71.1495515 16.9940426 74.7476808 11.3175603 79.9104498 2.17236879 85.384882 1.06939007 90.8602176-.0354042553 98.2127595-.350411348 102.436925 2.33032624 106.660188 5.01106383 116.046219 11.7914326 117.767142 16.9940426 119.488065 22.1975603 117.297389 33.7084823 116.984822 39.0690496 116.672256 44.4305248 118.549462 52.7868369 115.889936 56.571461 113.23041 60.3551773 113.387597 65.0857305 115.263899 66.5046241 117.141106 67.9244255 111.509487 66.0316596 110.570884 65.5596028 109.632281 65.0857305 109.007147 69.1853617 109.789467 69.9742411 110.570884 70.7622128 111.19692 71.392227 111.66577 73.6009078 112.135523 75.807773 113.387597 78.1735035 113.387597 79.4344397 113.387597 80.6953759 110.72807 75.492766 108.693677 73.1279433 106.660188 70.7622128 104.314132 69.1853617 104.314132 69.1853617 104.314132 69.1853617 101.967172 69.9742411 103.062059 72.6540709 104.156945 75.3348085 106.972754 80.6953759 106.972754 80.6953759L107.129941 86.8448227C107.129941 86.8448227 104.782982 81.3262979 104.626698 80.3812766 104.470415 79.4344397 101.810889 76.4377872 101.810889 76.4377872 101.810889 76.4377872 101.497419 83.0611064 101.342039 84.3229504 101.184852 85.5838865 97.117873 89.8414752 97.117873 89.8414752 97.117873 89.8414752 101.497419 85.4259291 99.7773992 79.7503546 98.0564762 74.0729645 97.5876263 74.7047943 97.5876263 74.7047943L96.0229866 82.9031489C96.0229866 82.9031489 94.9281001 88.5796312 94.9281001 91.7333333 94.9281001 94.8870355 94.3020636 99.9325957 94.3020636 99.9325957 94.3020636 99.9325957 91.955104 95.0449929 92.4248573 92.0483404 92.8937072 89.0525957 90.0778977 89.5255603 91.0174042 94.8870355 91.955104 100.247603 91.3299708 100.563518 92.1122907 105.609078 92.8937072 110.654638 88.826728 114.75427 88.826728 114.75427 88.826728 114.75427 90.547651 110.181674 88.9830113 108.289816 87.4183716 106.397957 86.1672018 108.131858 85.5420686 110.181674 84.9160321 112.231489 83.3513924 116.489078 82.7253558 114.439262 82.1002226 112.389447 80.6918662 109.077787 80.6918662 109.077787 80.6918662 109.077787 79.5969798 109.235745 79.5969798 111.128511 79.5969798 113.019461 76.938357 110.654638 76.938357 110.654638 76.938357 110.654638 76.3123205 112.073532 75.9988505 113.019461 75.6862839 113.966298 72.7141912 111.28556 72.7141912 111.28556 72.7141912 111.28556 72.8704745 115.384284 71.6193047 112.546496 70.368135 109.708709 70.5235149 108.76278 70.054665 106.712965 69.5849118 104.662241 68.8034953 102.612426 68.8034953 102.612426 68.8034953 102.612426 68.0211754 106.24 67.8648921 107.342979 67.7086088 108.447773 61.76352 104.978156 61.76352 104.978156 61.76352 104.978156 60.5123502 104.662241 60.1988803 107.658894 59.8863137 110.654638 58.1653907 110.970553 57.3830708 108.604823 56.6016543 106.24 54.8807313 102.140369 54.8807313 102.140369 54.8807313 102.140369 53.4723749 96.4638865 53.9421282 93.7831489 54.4109781 91.1024113 53.3160916 85.4259291 53.3160916 83.3761135 53.3160916 81.3262979 51.282602 78.9614752 53.4723749 76.2807376 55.6630512 73.6009078 56.6703106 70.9492199 57.8157858 68.9929078 59.1148343 66.7733333 56.9277715 69.8907234 60.5259008 62.6382979zM137.321525 125.003348L140.607088 103.086298C140.607088 103.086298 139.824768 101.19444 145.768953 101.19444 151.713139 101.19444 196.923277 101.036482 196.923277 101.036482 196.923277 101.036482 199.269333 99.7746383 198.6442 107.185929 198.018163 114.59722 190.040488 149.12817 190.040488 149.12817 180.346382 151.558916 173.075803 153.381975 168.22875 154.597347 165.949205 155.168931 162.529886 156.026307 157.970794 157.169475L149.054516 153.227801C149.054516 153.227801 152.495459 153.858723 153.121495 151.65095 153.746629 149.443177 154.215478 148.760511 155.623835 147.971631 157.032191 147.18366 157.658228 146.289475 157.658228 146.289475L155.623835 144.555574 154.024867 144.340426 152.66981 144.794326C152.218124 144.555574 151.403282 145.27183 150.41138 144.794326 149.419478 144.316823 141.858258 139.510014 141.232221 137.145191 140.607088 134.779461 137.321525 125.003348 137.321525 125.003348z"/>
      <path fill="#FFF" stroke="#C0CED5" stroke-width="2" d="M12.9561563 242.826894C4.19525796 228.16227-5.50334012 200.411688 6.22965092 168.244652 17.9617386 136.079433 36.1086684 127.249248 54.2546948 129.298156 72.4016246 131.347972 71.775588 133.083688 76.1551338 135.763518 80.5355829 138.445163 83.3513924 138.12834 86.7932384 139.390184 90.2350844 140.651121 115.421086 138.12834 119.956915 139.864057 124.493648 141.597957 129.656417 141.124993 138.103845 145.224624 146.551273 149.323348 162.194057 157.523518 166.261939 159.099461 170.328919 160.676312 173.770765 161.623149 174.865651 163.2 175.960537 164.776851 188.944698 160.519262 198.487916 175.813901 208.030231 191.108539 211.784644 220.278922 203.180029 233.523745 194.576317 246.768567 175.647971 250.395234 166.261939 250.553191 156.875908 250.710241 76.7811703 260.433702 51.9601308 253.496284 27.1390912 246.557957 21.7161512 257.49061 12.9561563 242.826894zM193.168864 106.187348L186.70253 142.137191 143.944143 138.983489C143.944143 138.983489 142.066936 138.143773 141.023542 134.568851 139.981051 130.994837 139.981051 127.842043 139.981051 127.842043L144.3615 105.136113 193.168864 106.187348z"/>
      <path stroke="#C0CED5" stroke-width="2" d="M148.152951,143.432624 C149.959695,144.945626 150.260818,147.21513 149.056323,150.241135"/>
    </g>
    <g id="svg-cat" transform="translate(714.761 308.885)">
      <path fill="#FFF" stroke="#C0CED5" stroke-linecap="round" stroke-linejoin="round" stroke-width="2" d="M26.8334085,136.483795 C26.8334085,136.483795 20.2391579,134.597097 19.8818519,132.292644 C19.5254551,129.988191 18.8581202,129.175335 18.7235622,126.195766 C18.5890042,123.215292 17.785293,110.837579 20.2682515,105.617897 C22.7521192,100.398216 25.0123298,102.759759 25.2887191,95.3289628 C25.5660177,87.8972602 23.8867704,78.8244389 22.9721397,73.9889841 C22.0565999,69.1535292 22.3593554,64.0824637 19.4963614,59.5079929 C16.6324583,54.9344283 10.9910238,49.0187894 9.8418258,41.2173593 C8.69171868,33.415023 10.0227517,22.7237381 9.45542618,19.1152708 C8.88810061,15.5068035 2.83390033,1.49884602 7.13884676,0.443129204 C11.442884,-0.612587611 13.2830554,0.825543363 14.0894942,4.63427965 C14.8959329,8.44301593 14.8622934,6.92060885 14.8622934,6.92060885 C14.8622934,6.92060885 15.942394,7.46795044 16.0205831,8.82633628 C16.0978631,10.1847221 17.2170582,23.9307894 18.7235622,29.0226973 C20.2309753,34.1146053 20.6319218,35.8989027 22.1993405,35.5010832 C24.542286,34.1055434 28.7499506,35.914308 29.9227871,34.3574655 C31.0956237,32.8015292 31.8520578,27.2447434 32.2402757,26.3557664 C32.6275845,25.4667894 32.6512231,22.7246442 34.5568551,21.020092 C36.4624872,19.316446 41.6584257,15.3001912 48.0735687,17.5910513 C54.4878025,19.8810053 54.671456,20.9294726 56.9553051,19.1152708 C59.2391542,17.301069 62.5767378,13.046485 64.2932613,15.3047221 C66.0088756,17.5629593 65.3215389,20.2117664 64.2932613,22.5443115 C63.2640745,24.8777628 62.2021574,27.9905416 62.3621723,29.7848071 C62.5221872,31.5799788 61.6775631,34.7870018 60.817483,35.8825912 C59.9564937,36.9772743 59.9173992,39.6849841 60.0446837,40.8358513 C60.1728775,41.9867186 58.4727191,43.7692035 58.886394,45.4085097 C59.3000689,47.0487221 60.6447396,52.0626973 59.2727937,54.5547327 C57.9008477,57.0467681 57.2489688,67.2749876 57.7281043,68.272708 C58.2063307,69.2704283 59.7519292,78.5344566 59.6582841,82.3721912 C59.5655482,86.2108319 57.2635156,94.0883823 59.2727937,96.8531823 C61.2820717,99.6179823 65.1106102,101.278131 65.0651514,112.476885 C65.0206018,123.675639 64.5232827,126.541027 65.8379506,127.338478 C67.1517094,128.136835 70.064708,130.998598 68.5409297,132.673246 C66.9671467,133.449855 65.7233945,132.596219 63.9068617,134.197465 C62.0903288,135.798712 56.8962087,136.164814 55.0242161,136.483795 C53.1531327,136.803681 50.1692184,136.664127 47.6871691,137.246811 C45.2051197,137.828588 34.7150517,137.921019 32.2402757,137.627412 C29.7645906,137.333805 26.8334085,136.483795 26.8334085,136.483795 Z"/>
      <path stroke="#C0CED5" stroke-linecap="round" stroke-linejoin="round" stroke-width="2" d="M38.0326334,30.9284248 C38.0326334,30.9284248 37.015266,29.1015363 37.6462338,27.8799858 C38.2781109,26.6584354 37.1480056,17.482308 39.1909231,17.5910513 C41.2338407,17.6988885 44.025919,24.1854301 46.5288794,25.2121487"/>
      <path fill="#FFF" stroke="#C0CED5" stroke-linecap="round" stroke-linejoin="round" stroke-width="2" d="M31.4674765,128.862697 C31.4674765,128.862697 30.8110517,131.766145 30.3091868,133.435356 C29.8073218,135.105473 27.5962068,135.484262 24.9541425,138.152099 C18.4371719,144.731073 -2.02473405,138.57348 0.281844434,144.664014 C0.834623195,146.123894 1.86562832,148.790825 10.7200894,149.315512 C24.9832361,150.161897 31.4456563,145.477777 33.3985654,143.72429 C35.3514746,141.970804 38.9118062,141.387214 42.2803018,139.151632 C45.6497066,136.91605 47.9699227,135.404517 48.4599683,133.435356 C48.9491048,131.467101 45.155115,119.871434 41.5084117,120.097982 C37.8617084,120.325437 31.4674765,128.862697 31.4674765,128.862697 Z"/>
      <path stroke="#C0CED5" stroke-linecap="round" stroke-linejoin="round" stroke-width="2" d="M6.10693246 2.10146549L7.78345226 4.11956106M8.29713647.443129204L10.2282254 3.49156814M11.0001155.443129204C11.0001155.443129204 12.0738519 2.27907965 12.1584052 3.87216991"/>
      <path fill="#FFF" d="M50.3901481,132.292644 C50.3901481,132.292644 34.2859208,136.932361 28.7644974,128.100588 C23.2421649,119.268814 45.7560801,112.476885 45.7560801,112.476885 C45.7560801,112.476885 53.3104201,121.703759 52.3212371,126.195766 C51.332054,130.687773 50.3901481,132.292644 50.3901481,132.292644 Z"/>
    </g>
    <g id="svg-man" transform="translate(838.23 .779)">
      <path fill="#FFF" d="M174.895575,150.355858 C172.363667,163.957629 171.69852,177.596535 171.270796,192.020734 C170.843073,206.444933 173.378605,217.386492 173.989381,226.439545 C174.600156,235.492598 173.989381,246.366225 173.989381,246.366225 L168.552212,241.837434 L168.552212,248.177741 C168.552212,248.177741 166.983589,248.06271 162.20885,248.177741 C161.460333,253.356867 157.683313,256.528832 156.917579,257.124821 C156.81246,257.146559 156.771681,257.235323 156.771681,257.235323 C156.771681,257.235323 156.829678,257.191847 156.917579,257.124821 C157.121473,257.081344 157.587257,257.30869 158.584071,259.04684 C160.092885,261.678067 160.949239,308.32099 160.39646,312.486572 C159.843681,316.652154 160.232439,321.446332 162.20885,325.167187 C164.18526,328.888041 163.919745,339.839563 164.021239,347.811141 C164.122733,355.782719 167.448467,363.642888 167.646018,383.13571 C167.843568,402.628532 160.39646,432.95241 160.39646,432.95241 C160.39646,432.95241 161.698662,436.002098 161.302655,442.009992 C160.906648,448.017886 158.584071,452.87909 158.584071,452.87909 C158.584071,452.87909 159.592665,455.410684 159.490265,457.407881 C159.387865,459.405078 159.920708,465.461883 158.584071,467.371221 C157.247434,469.280559 151.620871,468.306869 145.897345,468.276979 C140.173819,468.247089 139.972644,468.435487 139.553982,467.371221 C139.13532,467.035185 130.85995,466.505316 127.773451,468.276979 C124.686952,470.048642 124.17314,470.030527 109.649558,469.182737 C94.4318301,468.280602 91.201246,469.72891 78.8389381,460.125156 C83.2067965,452.906263 90.9556673,453.853686 94.2442478,453.784848 C97.5328283,453.716011 98.7136,454.24135 106.930973,451.067574 C94.5016071,451.555777 86.0884956,442.91575 86.0884956,442.91575 C86.0884956,442.91575 87.1541805,440.424915 89.7132743,438.386959 C92.2723681,436.349003 102.689982,438.892372 106.024779,439.292717 C109.359575,439.693063 111.318768,436.243935 114.180531,435.669685 C117.042294,435.095434 118.513954,431.97872 119.617699,431.140894 C120.721444,430.303068 128.125961,424.931921 126.867257,422.083312 C125.608552,419.234703 125.08749,415.207702 126.867257,411.214214 C128.647023,407.220726 131.189805,403.460018 129.585841,400.345116 C127.981876,397.230213 129.936538,392.288397 130.492035,388.570259 C131.047533,384.852122 126.506591,377.145026 125.054867,365.926305 C123.603143,354.707584 120.195851,350.536568 115.086726,344.188109 C109.9776,337.839649 108.566655,328.819204 106.930973,320.638396 C105.295292,312.457588 101.827285,282.395474 101.493805,272.633212 C101.160326,262.870951 101.563582,260.493335 102.4,255.423807 C103.126768,251.018199 101.222853,247.433208 100.711759,246.568209 C100.823221,246.490314 100.587611,246.366225 100.587611,246.366225 C100.587611,246.366225 100.634733,246.43778 100.711759,246.568209 C100.580361,246.660596 99.9614301,246.688675 97.8690265,246.366225 C94.0068248,245.772048 92.0521628,231.138619 92.4318584,219.19348 C92.811554,207.248341 98.7752212,183.868911 98.7752212,183.868911 L97.4585204,179.26313 L83.3699115,178.434362 C83.3699115,178.434362 75.8802124,178.827461 69.7769912,178.434362 C63.6737699,178.041262 64.339823,172.999812 64.339823,172.999812 C64.339823,172.999812 56.5809841,172.365782 52.559292,171.188296 C48.5376,170.01081 47.6803398,162.154264 45.3097345,161.224956 C42.9391292,160.295648 40.7787611,151.261616 40.7787611,151.261616 L0,119.56008 L22.6548673,125.900387 L52.559292,98.7276417 L103.306195,136.769485 L106.024779,136.769485 C106.024779,136.769485 106.197862,131.318632 108.743363,121.371596 C111.288864,111.42456 115.790839,102.473857 117.80531,96.0103671 C119.819781,89.5468767 125.961062,74.2721708 125.961062,74.2721708 L123.242478,73.3664126 C123.242478,73.3664126 115.87874,75.7639545 112.368142,76.0836871 C108.857543,76.4034198 107.837168,72.4606544 107.837168,72.4606544 L103.306195,69.7433799 L103.306195,67.9318635 L101.493805,67.0261053 L100.587611,64.3088308 C100.587611,64.3088308 97.5600142,67.1456654 94.2442478,67.0261053 C90.9284814,66.9065453 92.4318584,52.5339745 92.4318584,52.5339745 C92.4318584,52.5339745 91.1550301,50.82028 89.7132743,49.8166999 C88.2715186,48.8131199 87.6190584,46.2715624 86.9946903,44.3821508 C86.3703221,42.4927393 83.3699115,36.2303272 83.3699115,36.2303272 C83.3699115,36.2303272 77.5766088,30.6454223 77.0265487,26.2669872 C76.9603965,20.1630829 89.3979186,12.5474681 92.4318584,9.0575818 C95.4657982,5.56769553 99.8037522,3.60763483 105.118584,1.81151636 C110.433416,0.0153978891 117.624071,1.20465838 126.867257,5.43454908 C136.110442,9.66443978 134.905204,24.1239634 135.023009,27.1727454 C135.140814,30.2215274 141.366372,39.8533599 141.366372,39.8533599 L140.460177,40.7591181 L145.897345,48.9109417 L151.334513,48.9109417 L153.146903,52.5339745 L155.865487,53.4397326 C155.865487,53.4397326 157.213904,57.9576544 157.677876,62.4973144 C178.606442,76.2204566 183.20085,96.4532829 184.863717,108.690982 C186.526584,120.92868 177.427483,136.754087 174.895575,150.355858 Z"/>
      <path stroke="#C0CED5" stroke-width="2" d="M125.664736,437.64152 L122.602704,440.69936 C122.602704,440.69936 119.541579,445.594077 117.245281,446.817756 C114.948984,448.04053 114.795837,449.723429 112.652687,450.641867 C110.509536,451.5594 102.090988,453.700613 99.6415434,454.465073 C97.1930053,455.230438 89.3861381,454.006759 85.8655717,455.230438 C82.3450053,456.454118 80.5081487,459.819009 80.5081487,459.819009 C80.5081487,459.819009 86.0187186,466.242646 98.1109805,467.466326 C110.204149,468.690005 120.15326,469.760611 124.133267,468.230786 C128.113274,466.701866 136.225529,465.326019 138.674973,465.937406 C141.124418,466.548793 140.971271,467.466326 140.971271,467.466326 C140.971271,467.466326 153.982414,467.313253 156.278712,467.466326 C158.575009,467.619399 158.575009,465.17204 158.575009,465.17204 L158.575009,460.582563 C158.575009,460.582563 159.646131,456.760264 159.339837,454.465073 C159.033543,452.170787 157.809274,451.406327 157.809274,451.406327"/>
      <path stroke="#C0CED5" stroke-width="2" d="M127.195299,426.933647 C127.195299,426.933647 119.846966,432.440657 118.775844,433.052949 C117.704722,433.664336 116.480453,435.346329 115.714719,436.110789 C114.948984,436.875249 111.122124,437.181395 110.357296,438.405074 C109.591561,439.629659 102.397281,440.394119 98.1109805,439.17044 C93.8246796,437.946761 89.6924319,439.323513 88.1609628,440.69936 C86.6304,442.076112 86.6304,442.229185 86.6304,442.229185 C86.6304,442.229185 93.9787327,449.112042 102.703575,449.877408 C111.428418,450.641867 111.887858,449.112042 111.887858,449.112042"/>
      <path stroke="#C0CED5" stroke-width="2" d="M162.401869,247.97938 C162.401869,247.97938 161.329841,250.885053 160.871306,252.567951 C160.410959,254.25085 156.278712,257.156522 156.278712,257.156522 C156.278712,257.156522 157.962421,256.850376 158.575009,259.450808 C159.18669,262.051239 159.799278,277.652018 160.105572,279.334917 C160.410959,281.01691 161.482988,306.866343 160.871306,309.160628 C160.258719,311.454914 159.952425,317.420237 160.105572,319.10223 C160.258719,320.785129 164.085579,329.503051 163.931526,335.162228 C163.779285,340.821405 163.626138,347.398116 163.931526,349.693307 C164.238726,351.986686 165.003554,357.18755 166.227823,361.929194 C167.452998,366.670838 168.52412,383.801443 166.993558,396.343476 C165.462995,408.88551 163.319844,423.568755 162.401869,427.699013 C161.482988,431.828364 160.410959,433.052949 160.871306,434.581869 C161.329841,436.110789 160.871306,439.323513 160.871306,442.229185 C160.871306,445.134858 158.728156,452.324766 158.575009,452.936153 C158.421862,453.548445 135.920142,449.418188 131.022159,443.759011 C126.123271,438.099834 122.602704,434.581869 122.602704,434.581869 C122.602704,434.581869 127.500687,430.146371 127.195299,423.110442 C126.889005,416.074512 123.368439,416.992045 126.429565,412.403474 C129.49069,407.814903 130.869012,403.226332 130.256425,400.932047 C129.643837,398.637762 127.960127,396.189497 129.49069,392.519365 C131.022159,388.848327 130.409572,386.554042 128.725862,381.048843 C127.042152,375.541834 125.205296,360.094128 122.602704,355.046338 C120.000113,349.998547 115.561572,344.33937 112.652687,340.516165 C109.744708,336.692054 107.601558,324.302188 106.530435,318.33777 C105.458407,312.372447 101.937841,287.59362 101.937841,277.039726 C101.937841,266.486737 99.7946903,265.109985 101.937841,259.450808 C104.080991,253.790725 102.397281,250.273666 101.173012,247.97938 C99.9478372,245.685095 99.6415434,245.685095 99.6415434,245.685095"/>
      <path stroke="#C0CED5" stroke-width="2" d="M107.295264 249.509206C106.683582 253.485484 106.683582 261.132801 107.295264 267.098124 107.907851 273.063447 109.438414 281.935349 111.122124 286.216868 112.805834 290.500198 115.561572 296.618595 115.714719 303.042232 115.867865 309.466774 115.867865 311.76106 118.011016 316.043485 120.15326 320.325909 120.15326 327.667985 120.306407 329.810103 120.459554 331.95041 119.388432 336.079761 121.83697 338.221879 124.286414 340.363092 124.286414 347.398116 126.429565 348.927941 128.572715 350.457767 131.633841 355.963871 131.786988 360.399368 131.940135 364.834866 134.694966 373.706768 134.083285 377.224732 133.470697 380.741791 130.714959 385.942655 131.022159 387.9317 131.327547 389.918933 132.399575 393.283825 133.31755 394.81365 134.236432 396.343476 135.00126 402.002653 133.31755 403.226332 131.633841 404.450012 129.49069 409.344729 129.49069 409.344729M121.072142 86.6140317C121.072142 86.6140317 119.693819 94.4144212 118.775844 98.849919 117.856963 103.286323 117.245281 107.262601 117.245281 107.262601M123.368439 80.4956352C122.755851 81.2610009 122.602704 86.6140317 122.602704 86.6140317L124.899002 86.6140317"/>
      <polyline stroke="#C0CED5" stroke-width="2" points="75.151 141.678 82.039 135.558 83.823 138.128 77.027 144.468"/>
      <path stroke="#C0CED5" stroke-width="2" d="M63.6701451 173.03242C63.6701451 173.03242 53.5669805 171.961814 52.1895646 170.738134 50.8121487 169.514455 49.1275327 166.914023 49.1275327 166.914023 49.1275327 166.914023 46.9852885 164.772811 46.8321416 162.326358 46.6789947 159.878094 44.3826973 162.478525 43.0052814 157.736881 41.6278655 152.996143 39.1784212 149.325105 39.1784212 149.325105L45.3006726 153.91277 46.0664071 157.736881 46.0664071 154.678136 51.4238301 159.266707 51.4238301 163.090818 52.1895646 159.266707 58.3127221 163.855278C58.3127221 163.855278 55.710131 167.220169 57.5469876 167.678483M21.5746832 125.616885C21.5746832 125.616885 50.9652956 97.1679261 52.9543929 97.3209992 54.9453027 97.4740723 105.764701 137.089218 105.764701 137.089218 105.764701 137.089218 104.080991 143.972074 102.703575 148.560645 101.325253 153.14831 101.173012 156.207962 101.173012 156.207962M108.060998 127.912076C108.060998 127.14671 119.235285 102.520957 121.072142 95.7911736 122.908998 89.0613904 126.889005 83.0969727 127.195299 81.2610009 127.500687 79.4250291 130.256425 76.67243 130.256425 76.67243"/>
      <path stroke="#C0CED5" stroke-width="2" d="M104.999873,137.853678 C104.999873,137.853678 108.520439,118.734028 110.357296,112.616538 C112.194152,106.498141 119.388432,90.1319965 120.306407,87.3784917 C121.225288,84.6258925 124.133267,75.1426044 124.133267,75.1426044 L125.664736,72.8483189"/>
      <polyline stroke="#C0CED5" stroke-width="2" points="59.078 156.208 20.81 127.147 6.268 122.558 75.151 176.857 83.569 176.857"/>
      <path stroke="#C0CED5" stroke-width="2" d="M98.876715 179.915276C98.876715 179.915276 74.5381381 180.068349 71.3238655 179.915276 68.1086867 179.762203 65.8132956 178.84467 65.200708 178.385451 64.5881204 177.927137 62.1386761 173.03242 62.1386761 173.03242 62.1386761 173.03242 67.956446 173.338566 68.2618336 172.267054 68.5681274 171.197354 68.2618336 169.208309 68.2618336 169.208309M82.0387115 150.854025C82.0387115 150.854025 79.5892673 147.79528 77.4461168 145.500994 75.3029664 143.206709 72.7012814 139.076451 70.558131 140.147057 68.4149805 141.218569 66.7312708 140.912423 66.7312708 140.912423 66.7312708 140.912423 64.4349735 140.147057 63.6701451 143.972074 62.9044106 147.79528 62.9044106 147.79528 62.9044106 147.79528 62.9044106 147.79528 59.843285 149.783419 60.6081133 153.14831 61.3738478 156.513202 59.0775504 156.972421 60.6081133 158.502247 62.1386761 160.031167 64.5881204 162.784672 66.7312708 164.620644 68.8744212 166.45571 75.1507257 166.914023 75.1507257 166.914023"/>
      <path stroke="#C0CED5" stroke-width="2" d="M86.6304,153.91277 L82.0387115,152.38385 C82.0387115,152.38385 77.1407292,154.984282 76.6812885,160.795627 C76.2218478,166.607877 76.6812885,168.443849 76.6812885,168.443849 L79.7424142,173.03242"/>
      <path stroke="#C0CED5" stroke-width="2" d="M182.300998 116.439743C182.300998 116.439743 172.810421 127.452857 172.350981 130.969916 171.89154 134.488786 158.268715 161.714066 151.686117 169.972769 145.104425 178.232377 140.359589 181.444196 137.144411 182.209562 133.930138 182.974927 100.100984 180.37359 95.8146832 179.915276 91.5292885 179.456057 82.497246 177.314844 81.272977 176.856531 80.048708 176.397311 76.5281416 166.607877 80.5081487 160.031167 84.4872496 153.453551 88.1609628 153.91277 88.1609628 153.91277L104.999873 156.207962 102.703575 159.266707C102.703575 159.266707 101.784694 157.125495 110.357296 155.442596 118.928991 153.760603 119.693819 151.466317 119.541579 150.854025 119.388432 150.242638 124.899002 147.03082 124.899002 147.03082 124.899002 147.03082 124.899002 146.112381 126.429565 141.677789 127.960127 137.241385 131.327547 131.582208 132.552722 130.205456 133.776991 128.829609 134.236432 125.463812 134.083285 123.322599 133.930138 121.181387 137.297558 117.205109 137.910145 115.675283 138.521827 114.145457 139.593855 109.403813 140.206442 108.027061 140.818124 106.651214 142.501834 103.133249 143.267568 100.38065M100.407278 246.449555C100.407278 246.449555 93.2129982 250.120593 91.987823 232.683842 90.763554 215.247091 96.4272708 191.691944 96.5804177 188.327958 96.7335646 184.962161 98.1109805 181.444196 98.1109805 181.444196"/>
      <path stroke="#C0CED5" stroke-width="2" d="M154.748149,52.1997497 L156.278712,52.1997497 L158.575009,61.3759858 C158.575009,61.3759858 175.106719,70.7062008 183.065827,95.0267137 C191.025841,119.346321 178.780432,135.099267 176.177841,147.79528 C173.57525,160.490386 173.269862,173.950859 172.350981,189.856878 C171.432099,205.763803 173.728396,220.753195 174.647278,227.330811 C175.566159,233.907521 173.881543,247.21492 173.881543,247.21492 L169.289855,244.155269 L170.054683,248.74384 C170.054683,248.74384 139.440708,249.509206 123.368439,250.273666 C107.295264,251.038126 102.703575,247.97938 102.703575,247.97938 C102.703575,247.97938 98.2641274,245.991241 98.1109805,239.566698 C97.9578336,233.143061 98.5704212,203.011204 98.1109805,198.26956"/>
      <path stroke="#C0CED5" stroke-width="2" d="M147.094428 47.6111787L151.686117 47.6111787 154.748149 53.7295753C154.748149 53.7295753 142.961274 57.3997074 136.379582 67.4952881 129.796984 77.589963 128.725862 78.9667154 128.725862 78.9667154L124.899002 74.3781445C124.899002 74.3781445 123.673827 71.9307859 134.848113 60.6115259 146.0224 49.2940774 149.389819 49.9054642 149.389819 49.9054642M140.971271 39.9638624L147.860163 49.1400986M119.541579 31.5511805C122.296411 32.3156404 125.664736 34.6108316 125.664736 42.2581479 125.664736 49.9054642 122.602704 47.6111787 122.602704 47.6111787M98.1109805 49.1400986L95.0498549 52.9651154C95.0498549 52.9651154 93.7757451 52.4723829 95.8201204 53.0439163M88.9266973 49.1400986C88.9266973 49.1400986 90.9674478 45.6991232 95.0498549 46.0813532 99.1313558 46.4635831 97.3461522 47.6111787 97.3461522 47.6111787 97.3461522 47.6111787 92.7535575 47.1021427 91.987823 49.1400986 91.2229947 51.179866 91.987823 50.6699241 91.987823 50.6699241L88.9266973 49.1400986z"/>
      <path stroke="#C0CED5" stroke-linecap="round" stroke-linejoin="round" stroke-width="2" d="M98.1109805,4.0197548 C95.2410619,5.93181032 92.5623504,9.56390063 89.6924319,11.6679769 C86.8216071,13.7702416 78.0206442,19.3143874 77.4461168,24.6674183 C76.8724956,30.0213549 79.5512071,31.5511805 80.5081487,32.3156404 C81.4641841,33.081006 83.5692743,36.9051171 83.5692743,36.9051171 C83.5692743,36.9051171 89.6924319,32.8889853 93.519292,30.7867205 C97.3461522,28.6826443 101.746634,29.256895 102.703575,32.3156404 C103.659611,35.3752915 104.425345,39.0082876 105.764701,40.7283223 C107.104057,42.4492629 111.887858,45.6991232 111.887858,49.1400986 C111.887858,52.5819796 114.184156,61.9502365 112.652687,62.9067171 C111.122124,63.862292 104.999873,65.2000969 104.999873,65.2000969 L99.6415434,63.6720828 L101.937841,66.7299224 L108.060998,66.7299224 C108.060998,66.7299224 110.357296,71.892744 109.591561,72.083859 C108.825827,72.274974 108.634619,78.0111406 116.480453,75.9070643 C124.324474,73.8047996 124.899002,71.1273784 125.664736,69.7895736 C126.429565,68.450863 127.76892,65.2000969 127.195299,62.9067171 C126.620772,60.6115259 125.090209,52.7730946 120.306407,50.6699241 C115.522605,48.5676594 110.165182,39.5807267 112.652687,36.1397514 C115.140191,32.6978703 116.480453,28.3004143 121.072142,31.5511805 C125.664736,34.8019466 130.638839,39.3905175 134.083285,40.7283223 C137.526825,42.0670329 141.737005,39.9638624 141.737005,39.9638624 C141.737005,39.9638624 136.379582,33.8454659 135.613848,26.9626095 C134.848113,20.0797531 133.126343,8.03498082 125.664736,4.78421471 C118.202223,1.53435436 107.678584,-0.377701161 103.468404,1.72546933 C99.2591292,3.82863983 100.980899,2.10769929 98.1109805,4.0197548 Z"/>
      <path stroke="#C0CED5" stroke-width="2" d="M84.3350088 36.1397514C84.3350088 36.1397514 84.8451965 40.2183805 86.6304 43.0226078 88.4165097 45.8268351 88.1609628 48.1211206 88.9266973 49.1400986 89.6924319 50.1599823 92.1155965 50.4154061 92.7535575 51.434384 93.3915186 52.4542677 93.5854442 61.0562532 93.519292 63.6720828 93.4422655 66.6792 96.5804177 65.9663683 98.1109805 64.4356369 99.6415434 62.9067171 99.5137699 62.1422572 100.407278 62.9067171 101.29988 63.6720828 102.703575 64.4356369 102.703575 64.4356369M104.234138 67.4952881C104.234138 67.4952881 102.575802 69.1519198 105.764701 69.7895736 108.9536 70.4263216 109.591561 72.8483189 109.591561 72.8483189"/>
    </g>
  </g>
</svg>
