<svg width="62" height="174" viewBox="0 0 62 174" xmlns="http://www.w3.org/2000/svg"><title>slide-4</title><g fill="none" fill-rule="evenodd"><path d="M66.878 55.915c-.925 4.968-1.168 9.95-1.324 15.218-.156 5.268.77 9.264.993 12.57.223 3.307 0 7.278 0 7.278l-1.986-1.654v2.316s-.573-.042-2.317 0c-.273 1.892-1.653 3.05-1.932 3.268-.039.008-.054.04-.054.04l.054-.04c.074-.016.244.067.608.702.551.96.864 17.996.662 19.518-.202 1.521-.06 3.272.662 4.631.722 1.36.625 5.36.662 8.27.037 2.912 1.252 5.783 1.324 12.902.072 7.12-2.648 18.195-2.648 18.195s.476 1.114.331 3.308c-.144 2.195-.993 3.97-.993 3.97s.369.925.331 1.654c-.037.73.158 2.942-.33 3.639-.489.697-2.544.342-4.634.33-2.09-.01-2.164.059-2.317-.33-.153-.123-3.175-.316-4.303.33-1.127.648-1.315.641-6.62.332-5.557-.33-6.737.2-11.252-3.308 1.595-2.637 4.425-2.291 5.626-2.316 1.201-.025 1.633.167 4.634-.993-4.54.179-7.613-2.977-7.613-2.977s.39-.91 1.324-1.654c.935-.744 4.74.185 5.958.33 1.218.147 1.933-1.113 2.979-1.322 1.045-.21 1.582-1.349 1.985-1.655.404-.306 3.108-2.267 2.648-3.308a4.915 4.915 0 0 1 0-3.97c.65-1.458 1.579-2.832.993-3.97-.586-1.137.128-2.942.331-4.3.203-1.358-1.455-4.173-1.986-8.27-.53-4.098-1.774-5.621-3.64-7.94-1.866-2.318-2.382-5.613-2.98-8.6-.597-2.989-1.863-13.968-1.985-17.534-.122-3.565.026-4.434.331-6.285.265-1.61-.43-2.919-.617-3.235.041-.028-.045-.074-.045-.074l.045.074c-.048.034-.274.044-1.038-.074-1.41-.217-2.124-5.561-1.986-9.924.139-4.363 2.317-12.902 2.317-12.902l-.48-1.682-5.146-.303s-2.736.144-4.965 0c-2.23-.143-1.986-1.985-1.986-1.985s-2.834-.231-4.303-.661c-1.468-.43-1.782-3.3-2.647-3.64-.866-.339-1.655-3.638-1.655-3.638L3 44.667l8.274 2.316 10.922-9.924 18.535 13.894h.993s.063-1.99.993-5.624c.93-3.633 2.574-6.902 3.31-9.263.735-2.36 2.978-7.94 2.978-7.94l-.993-.33s-2.69.876-3.971.992c-1.282.117-1.655-1.323-1.655-1.323l-1.655-.992v-.662l-.662-.33-.33-.993s-1.107 1.036-2.318.992c-1.21-.043-.662-5.293-.662-5.293s-.466-.626-.993-.992c-.526-.367-.765-1.295-.993-1.985-.228-.69-1.323-2.977-1.323-2.977s-2.116-2.04-2.317-3.64c-.024-2.229 4.518-5.01 5.626-6.285 1.108-1.274 2.693-1.99 4.634-2.646 1.941-.656 4.567-.222 7.943 1.323 3.376 1.545 2.936 6.826 2.979 7.94.043 1.113 2.317 4.63 2.317 4.63l-.331.332 1.986 2.977h1.986l.662 1.323.992.331s.493 1.65.662 3.308c7.644 5.012 9.322 12.402 9.93 16.872.607 4.47-2.716 10.25-3.641 15.217z" fill="#FFF"/><path d="M48.897 160.842l-1.118 1.117s-1.118 1.787-1.957 2.234c-.839.447-.895 1.061-1.677 1.397-.783.335-3.858 1.117-4.752 1.396-.895.28-3.746-.167-5.032.28-1.286.447-1.957 1.676-1.957 1.676s2.013 2.346 6.43 2.793c4.416.447 8.05.838 9.504.279 1.453-.558 4.416-1.06 5.31-.838.895.224.84.559.84.559s4.752-.056 5.59 0c.839.056.839-.838.839-.838v-1.676s.391-1.396.28-2.235c-.112-.838-.56-1.117-.56-1.117" stroke="#C0CED5" stroke-width="2"/><path d="M49.456 156.93s-2.684 2.012-3.075 2.236c-.391.223-.838.837-1.118 1.117-.28.279-1.677.39-1.957.838-.28.447-2.907.726-4.472.28-1.566-.448-3.075.055-3.635.558-.559.502-.559.558-.559.558s2.684 2.514 5.87 2.794c3.187.279 3.355-.28 3.355-.28" stroke="#C0CED5" stroke-width="2"/><path d="M62.315 91.57s-.392 1.062-.56 1.676c-.167.615-1.677 1.676-1.677 1.676s.615-.111.839.838c.223.95.447 6.648.56 7.263.11.614.502 10.055.279 10.893-.224.838-.336 3.017-.28 3.631.056.615 1.454 3.799 1.397 5.866-.055 2.067-.111 4.469 0 5.307.113.838.392 2.737.84 4.469.447 1.732.838 7.988.279 12.57-.56 4.58-1.342 9.943-1.677 11.451-.336 1.509-.727 1.956-.56 2.514.168.559 0 1.732 0 2.793 0 1.062-.782 3.688-.838 3.91-.056.224-8.274-1.284-10.063-3.351-1.79-2.067-3.075-3.352-3.075-3.352s1.789-1.62 1.677-4.19c-.112-2.57-1.398-2.234-.28-3.91 1.118-1.676 1.622-3.352 1.398-4.19-.224-.838-.839-1.732-.28-3.072.56-1.341.336-2.18-.279-4.19-.615-2.011-1.286-7.653-2.236-9.497-.95-1.843-2.572-3.91-3.634-5.307-1.062-1.396-1.845-5.922-2.236-8.1-.392-2.179-1.678-11.229-1.678-15.084 0-3.854-.783-4.357 0-6.424s.168-3.351-.28-4.19c-.447-.837-.558-.837-.558-.837" stroke="#C0CED5" stroke-width="2"/><path d="M42.188 92.13c-.223 1.452-.223 4.245 0 6.423.224 2.18.783 5.42 1.398 6.983.615 1.565 1.621 3.8 1.677 6.145.056 2.347.056 3.185.839 4.749.782 1.564.782 4.246.838 5.028.056.782-.335 2.29.559 3.072.895.782.895 3.352 1.677 3.91.783.56 1.901 2.57 1.957 4.19.056 1.62 1.062 4.86.839 6.145-.224 1.285-1.23 3.185-1.118 3.911.111.726.503 1.955.838 2.514.336.558.615 2.625 0 3.072-.615.447-1.398 2.235-1.398 2.235M47.22 32.634s-.504 2.85-.839 4.47a68.2 68.2 0 0 0-.559 3.072M48.058 30.4c-.223.28-.28 2.234-.28 2.234h.84M30.448 52.746l2.515-2.235.652.938-2.482 2.316M26.255 64.197s-3.69-.39-4.194-.838c-.503-.446-1.118-1.396-1.118-1.396s-.782-.782-.838-1.676c-.056-.894-.895.056-1.398-1.676a12.42 12.42 0 0 0-1.398-3.072l2.236 1.675.28 1.397v-1.117l1.957 1.676v1.396l.28-1.396 2.236 1.676s-.95 1.229-.28 1.396" stroke="#C0CED5" stroke-width="2"/><path d="M10.88 46.88s10.734-10.39 11.46-10.335c.728.056 19.289 14.525 19.289 14.525s-.615 2.514-1.118 4.19c-.504 1.675-.56 2.793-.56 2.793M42.468 47.718c0-.28 4.08-9.274 4.752-11.732.67-2.458 2.124-4.636 2.236-5.307.112-.67 1.118-1.676 1.118-1.676" stroke="#C0CED5" stroke-width="2"/><path d="M41.35 51.349s1.285-6.983 1.956-9.218c.671-2.234 3.299-8.212 3.634-9.217.336-1.006 1.398-4.47 1.398-4.47l.56-.837M24.577 58.053L10.6 47.438l-5.31-1.676 25.158 19.832h3.074" stroke="#C0CED5" stroke-width="2"/><path d="M39.113 66.711s-8.89.056-10.063 0c-1.174-.056-2.013-.39-2.236-.559-.224-.167-1.119-1.955-1.119-1.955s2.125.112 2.237-.28c.111-.39 0-1.116 0-1.116M32.963 56.097s-.894-1.117-1.677-1.955c-.783-.838-1.733-2.346-2.516-1.955-.782.39-1.397.28-1.397.28s-.84-.28-1.118 1.117l-.28 1.396s-1.118.726-.839 1.955c.28 1.229-.559 1.397 0 1.955.56.559 1.454 1.565 2.237 2.235.782.67 3.075.838 3.075.838" stroke="#C0CED5" stroke-width="2"/><path d="M34.64 57.214l-1.677-.558s-1.789.95-1.956 3.072c-.168 2.123 0 2.793 0 2.793l1.118 1.676" stroke="#C0CED5" stroke-width="2"/><path d="M69.583 43.528s-3.467 4.022-3.634 5.307C65.78 50.12 60.805 60.064 58.4 63.08c-2.404 3.017-4.137 4.19-5.311 4.47-1.174.279-13.53-.671-15.095-.839-1.565-.167-4.864-.95-5.311-1.117-.447-.168-1.733-3.743-.28-6.145 1.454-2.402 2.795-2.235 2.795-2.235l6.15.839-.838 1.117s-.336-.782 2.795-1.397c3.131-.614 3.41-1.452 3.355-1.676-.056-.223 1.956-1.396 1.956-1.396s0-.336.56-1.955c.558-1.62 1.788-3.688 2.236-4.19.447-.503.615-1.732.559-2.514-.056-.782 1.174-2.235 1.398-2.793.223-.56.614-2.291.838-2.794.224-.502.839-1.787 1.118-2.793M39.672 91.012s-2.627 1.34-3.075-5.028c-.447-6.368 1.622-14.972 1.677-16.2.056-1.23.56-2.514.56-2.514" stroke="#C0CED5" stroke-width="2"/><path d="M59.52 20.065h.558l.839 3.352s6.038 3.407 8.945 12.29c2.907 8.882-1.565 14.636-2.516 19.273-.95 4.637-1.062 9.553-1.397 15.362-.336 5.81.503 11.285.838 13.687.336 2.402-.28 7.262-.28 7.262l-1.677-1.117.28 1.676s-11.181.28-17.052.559c-5.87.279-7.547-.838-7.547-.838s-1.622-.727-1.677-3.073c-.056-2.346.167-13.351 0-15.083" stroke="#C0CED5" stroke-width="2"/><path d="M56.724 18.39H58.4l1.118 2.234s-4.305 1.34-6.708 5.028c-2.405 3.687-2.796 4.19-2.796 4.19l-1.398-1.677s-.447-.893 3.634-5.028c4.081-4.133 5.311-3.91 5.311-3.91M54.488 15.596l2.516 3.352M46.66 12.524c1.007.279 2.237 1.117 2.237 3.91S47.78 18.39 47.78 18.39M38.834 18.948l-1.119 1.397s-.465-.18.282.028M35.48 18.948s.744-1.257 2.235-1.118c1.491.14.84.56.84.56s-1.678-.187-1.958.558c-.28.745 0 .558 0 .558l-1.118-.558z" stroke="#C0CED5" stroke-width="2"/><path d="M38.834 2.468c-1.049.699-2.027 2.025-3.075 2.794-1.049.767-4.263 2.792-4.473 4.747-.21 1.956.769 2.515 1.118 2.794.35.28 1.118 1.676 1.118 1.676s2.237-1.467 3.634-2.235c1.398-.768 3.005-.558 3.355.559.35 1.117.629 2.444 1.118 3.072.49.629 2.236 1.816 2.236 3.073s.839 4.678.28 5.028c-.56.349-2.795.837-2.795.837l-1.957-.558.838 1.117h2.237s.838 1.886.559 1.956c-.28.07-.35 2.164 2.516 1.396 2.865-.768 3.074-1.746 3.354-2.234.28-.49.769-1.677.56-2.514-.21-.839-.77-3.701-2.517-4.47-1.747-.767-3.704-4.05-2.795-5.307.908-1.257 1.398-2.863 3.075-1.675 1.677 1.187 3.494 2.863 4.752 3.351 1.258.49 2.795-.279 2.795-.279s-1.956-2.234-2.236-4.748c-.28-2.514-.909-6.913-3.634-8.1C46.172 1.56 42.327.861 40.79 1.63c-1.537.768-.908.14-1.956.838z" stroke="#C0CED5" stroke-width="2" stroke-linecap="round" stroke-linejoin="round"/><path d="M33.802 14.2s.186 1.49.838 2.513c.653 1.025.56 1.862.84 2.235.279.372 1.164.465 1.397.838.233.372.304 3.514.28 4.47-.029 1.098 1.117.837 1.677.278.559-.558.512-.838.838-.558.326.28.839.558.839.558M41.07 25.652s-.606.605.559.838c1.165.232 1.398 1.117 1.398 1.117" stroke="#C0CED5" stroke-width="2"/></g></svg>
